<?xml version="1.0" encoding="UTF-8"?>
<svg width="3800px" height="2000px" viewBox="0 0 3800 2000" version="1.1" xmlns="http://www.w3.org/2000/svg" xmlns:xlink="http://www.w3.org/1999/xlink">
    <title>4445</title>
    <g id="4445" stroke="none" stroke-width="1" fill="none" fill-rule="evenodd">
        <g id="Group-4" fill="#FE563B">
            <path d="M3190.29,741.021 C3064.86,634.026 2913.64,-11.234 2395.62,324.836 C2127.99,498.469 1676.69,175.774 1303.15,287.233 C960.1,389.594 927.032,726.843 960.225,836.736 C1027.27,1058.72 818.621,1091.75 625.061,1187.13 C321.441,1336.73 544.706,1862.5 831.539,1865.02 C1118.37,1867.53 2856.06,1860.01 2856.06,1860.01 C2856.06,1860.01 3272.74,1861.06 3446.02,1631.09 C3632.48,1383.61 3514.28,1017.39 3190.29,741.021" id="Fill-3"></path>
        </g>
        <polygon id="Fill-5" fill="#AED3FF" points="2661.72 1543.85 3375.83 1543.85 3375.83 344.028 2661.72 344.028"></polygon>
        <polygon id="Fill-6" fill="#D2E4FF" points="2639.34 1543.85 3353.45 1543.85 3353.45 344.028 2639.34 344.028"></polygon>
        <polygon id="Fill-7" fill="#F3F9FF" points="2687.97 828.971 3306.511 828.971 3306.511 411.054 2687.97 411.054"></polygon>
        <polygon id="Fill-8" fill="#F3F9FF" points="2963.88 1444.28 3295.85 1444.28 3295.85 1221.15 2963.88 1221.15"></polygon>
        <path d="M2713.47,624.354 C2713.47,624.354 2819.08,611.195 2883.62,670.647 C2948.15,730.099 3068.37,675.915 3116.78,670.647 C3200.94,661.488 3266.92,689.023 3286.49,719.29 L3286.49,810.088 L2713.47,810.088 L2713.47,624.354" id="Fill-9" fill="#EE9849"></path>
        <polygon id="Fill-10" fill="#A6C7F9" points="2795.33 620.012 2799.76 620.012 2799.76 478.227 2795.33 478.227"></polygon>
        <polygon id="Fill-11" fill="#A6C7F9" points="2969.01 680.854 2973.43 680.854 2973.43 539.068 2969.01 539.068"></polygon>
        <polygon id="Fill-12" fill="#A6C7F9" points="3148.21 648.773 3152.63 648.773 3152.63 506.988 3148.21 506.988"></polygon>
        <path d="M2849.17,499.982 L2815.24,499.982 C2813.21,499.982 2811.56,498.323 2811.56,496.295 C2811.56,494.267 2813.21,492.608 2815.24,492.608 L2849.17,492.608 C2851.19,492.608 2852.85,494.267 2852.85,496.295 C2852.85,498.323 2851.19,499.982 2849.17,499.982" id="Fill-13" fill="#A6C7F9"></path>
        <path d="M2849.17,513.257 L2815.24,513.257 C2813.21,513.257 2811.56,511.598 2811.56,509.569 C2811.56,507.542 2813.21,505.882 2815.24,505.882 L2849.17,505.882 C2851.19,505.882 2852.85,507.542 2852.85,509.569 C2852.85,511.598 2851.19,513.257 2849.17,513.257" id="Fill-14" fill="#A6C7F9"></path>
        <path d="M3020.26,572.254 L2986.34,572.254 C2984.31,572.254 2982.65,570.595 2982.65,568.567 C2982.65,566.539 2984.31,564.88 2986.34,564.88 L3020.26,564.88 C3022.29,564.88 3023.95,566.539 3023.95,568.567 C3023.95,570.595 3022.29,572.254 3020.26,572.254" id="Fill-15" fill="#A6C7F9"></path>
        <path d="M3020.26,585.256 L2986.34,585.256 C2984.31,585.256 2982.65,583.597 2982.65,581.568 C2982.65,579.54 2984.31,577.881 2986.34,577.881 L3020.26,577.881 C3022.29,577.881 3023.95,579.54 3023.95,581.568 C3023.95,583.597 3022.29,585.256 3020.26,585.256" id="Fill-16" fill="#A6C7F9"></path>
        <path d="M3202.41,518.788 L3168.49,518.788 C3166.46,518.788 3164.8,517.128 3164.8,515.101 C3164.8,513.073 3166.46,511.413 3168.49,511.413 L3202.41,511.413 C3204.44,511.413 3206.1,513.073 3206.1,515.101 C3206.1,517.128 3204.44,518.788 3202.41,518.788" id="Fill-17" fill="#A6C7F9"></path>
        <path d="M3202.41,531.789 L3168.49,531.789 C3166.46,531.789 3164.8,530.13 3164.8,528.102 C3164.8,526.074 3166.46,524.415 3168.49,524.415 L3202.41,524.415 C3204.44,524.415 3206.1,526.074 3206.1,528.102 C3206.1,530.13 3204.44,531.789 3202.41,531.789" id="Fill-18" fill="#A6C7F9"></path>
        <path d="M3184.36,935.871 C3184.36,902.141 3211.71,874.797 3245.44,874.797 C3279.17,874.797 3306.51,902.141 3306.51,935.871 C3306.51,969.601 3279.17,996.944 3245.44,996.944 C3211.71,996.944 3184.36,969.601 3184.36,935.871" id="Fill-19" fill="#F3F9FF"></path>
        <path d="M3301.33,935.87 C3301.33,966.739 3276.31,991.766 3245.44,991.766 C3230.86,991.766 3217.59,986.194 3207.65,977.061 L3245.44,935.87 L3245.44,879.974 C3276.31,879.974 3301.33,905 3301.33,935.87" id="Fill-20" fill="#C65447"></path>
        <path d="M3224.15,926.022 L3204.08,926.022 C3203.15,926.022 3202.39,925.266 3202.39,924.341 C3202.39,923.416 3203.15,922.66 3204.08,922.66 L3224.15,922.66 C3225.07,922.66 3225.83,923.416 3225.83,924.341 C3225.83,925.266 3225.07,926.022 3224.15,926.022" id="Fill-21" fill="#A6C7F9"></path>
        <path d="M3032.73,935.871 C3032.73,902.141 3060.07,874.797 3093.8,874.797 C3127.53,874.797 3154.88,902.141 3154.88,935.871 C3154.88,969.601 3127.53,996.944 3093.8,996.944 C3060.07,996.944 3032.73,969.601 3032.73,935.871" id="Fill-22" fill="#F3F9FF"></path>
        <path d="M3093.81,935.87 L3128.15,979.97 C3118.68,987.366 3106.76,991.766 3093.81,991.766 C3062.93,991.766 3037.9,966.739 3037.9,935.87 C3037.9,905 3062.93,879.974 3093.81,879.974 C3122.95,879.974 3146.89,902.284 3149.47,930.764 L3093.81,935.87" id="Fill-23" fill="#E57970"></path>
        <path d="M3136.85,949.69 L3122.88,949.69 C3121.95,949.69 3121.2,948.934 3121.2,948.009 C3121.2,947.084 3121.95,946.328 3122.88,946.328 L3136.85,946.328 C3137.77,946.328 3138.53,947.084 3138.53,948.009 C3138.53,948.934 3137.77,949.69 3136.85,949.69" id="Fill-24" fill="#A6C7F9"></path>
        <path d="M3184.36,1104.08 C3184.36,1070.35 3211.71,1043.01 3245.44,1043.01 C3279.17,1043.01 3306.51,1070.35 3306.51,1104.08 C3306.51,1137.81 3279.17,1165.16 3245.44,1165.16 C3211.71,1165.16 3184.36,1137.81 3184.36,1104.08" id="Fill-25" fill="#F3F9FF"></path>
        <path d="M3301.33,1104.08 C3301.33,1134.95 3276.31,1159.98 3245.44,1159.98 C3230.86,1159.98 3217.59,1154.41 3207.65,1145.27 L3245.44,1104.08 L3245.44,1048.19 C3276.31,1048.19 3301.33,1073.21 3301.33,1104.08" id="Fill-26" fill="#EE9849"></path>
        <path d="M3224.15,1094.24 L3204.08,1094.24 C3203.15,1094.24 3202.39,1093.48 3202.39,1092.55 C3202.39,1091.63 3203.15,1090.87 3204.08,1090.87 L3224.15,1090.87 C3225.07,1090.87 3225.83,1091.63 3225.83,1092.55 C3225.83,1093.48 3225.07,1094.24 3224.15,1094.24" id="Fill-27" fill="#A6C7F9"></path>
        <path d="M3032.73,1104.08 C3032.73,1070.35 3060.07,1043.01 3093.8,1043.01 C3127.53,1043.01 3154.88,1070.35 3154.88,1104.08 C3154.88,1137.81 3127.53,1165.16 3093.8,1165.16 C3060.07,1165.16 3032.73,1137.81 3032.73,1104.08" id="Fill-28" fill="#F3F9FF"></path>
        <path d="M3149.47,1098.98 C3146.89,1070.5 3122.95,1048.19 3093.81,1048.19 C3062.93,1048.19 3037.9,1073.21 3037.9,1104.08 C3037.9,1134.95 3062.93,1159.98 3093.81,1159.98 C3106.76,1159.98 3118.68,1155.58 3128.15,1148.18 L3093.81,1104.08 L3149.47,1098.98" id="Fill-29" fill="#C65447"></path>
        <path d="M3136.85,1117.9 L3122.88,1117.9 C3121.95,1117.9 3121.2,1117.15 3121.2,1116.22 C3121.2,1115.3 3121.95,1114.54 3122.88,1114.54 L3136.85,1114.54 C3137.77,1114.54 3138.53,1115.3 3138.53,1116.22 C3138.53,1117.15 3137.77,1117.9 3136.85,1117.9" id="Fill-30" fill="#A6C7F9"></path>
        <polyline id="Fill-31" fill="#A6C7F9" points="3281.54 1428.69 2976.83 1428.69 2976.83 1248.65 2980.62 1248.65 2980.62 1424.9 3281.54 1424.9 3281.54 1428.69"></polyline>
        <path d="M3072.08,1363.58 C3034.78,1333.89 2995.11,1363.58 2995.11,1363.58 L2995.11,1414.34 L3273.97,1414.34 L3273.97,1283.13 C3198.19,1285.04 3109.38,1393.27 3072.08,1363.58" id="Fill-32" fill="#A6C7F9"></path>
        <path d="M2998.31,1262.38 L3128.25,1262.38 C3130,1262.38 3131.44,1260.94 3131.44,1259.18 C3131.44,1257.43 3130,1255.99 3128.25,1255.99 L2998.31,1255.99 C2996.55,1255.99 2995.11,1257.43 2995.11,1259.18 C2995.11,1260.94 2996.55,1262.38 2998.31,1262.38" id="Fill-33" fill="#A6C7F9"></path>
        <path d="M2998.31,1277.98 L3128.25,1277.98 C3130,1277.98 3131.44,1276.54 3131.44,1274.78 C3131.44,1273.03 3130,1271.59 3128.25,1271.59 L2998.31,1271.59 C2996.55,1271.59 2995.11,1273.03 2995.11,1274.78 C2995.11,1276.54 2996.55,1277.98 2998.31,1277.98" id="Fill-34" fill="#A6C7F9"></path>
        <path d="M2997.73,1292.71 L3083.76,1292.71 C3085.2,1292.71 3086.38,1291.53 3086.38,1290.09 L3086.38,1288.93 C3086.38,1287.5 3085.2,1286.32 3083.76,1286.32 L2997.73,1286.32 C2996.29,1286.32 2995.11,1287.5 2995.11,1288.93 L2995.11,1290.09 C2995.11,1291.53 2996.29,1292.71 2997.73,1292.71" id="Fill-35" fill="#A6C7F9"></path>
        <polygon id="Fill-36" fill="#D2E4FF" points="1544.09 1631.09 2521.18 1631.09 2521.18 157.53 1544.09 157.53"></polygon>
        <polygon id="Fill-37" fill="#F3F9FF" points="1638.5 1116.79 2425.17 1116.79 2425.17 239.955 1638.5 239.955"></polygon>
        <path d="M1655.22,1396.94 C1655.22,1318.8 1718.57,1255.46 1796.7,1255.46 C1874.84,1255.46 1938.18,1318.8 1938.18,1396.94 C1938.18,1475.07 1874.84,1538.41 1796.7,1538.41 C1718.57,1538.41 1655.22,1475.07 1655.22,1396.94" id="Fill-38" fill="#F3F9FF"></path>
        <path d="M1916.29,1396.94 C1916.29,1330.89 1862.75,1277.34 1796.71,1277.34 C1730.65,1277.34 1677.11,1330.89 1677.11,1396.94 C1677.11,1462.98 1730.65,1516.53 1796.71,1516.53 C1823.99,1516.53 1849.13,1507.4 1869.24,1492.02 L1796.71,1396.94 L1908.46,1439.59 C1913.52,1426.34 1916.29,1411.96 1916.29,1396.94" id="Fill-39" fill="#EE9849"></path>
        <path d="M2137.26,1396.94 C2137.26,1318.8 2200.6,1255.46 2278.74,1255.46 C2356.88,1255.46 2420.22,1318.8 2420.22,1396.94 C2420.22,1475.07 2356.88,1538.41 2278.74,1538.41 C2200.6,1538.41 2137.26,1475.07 2137.26,1396.94" id="Fill-40" fill="#F3F9FF"></path>
        <path d="M2278.74,1277.34 C2212.68,1277.34 2159.15,1330.89 2159.15,1396.94 C2159.15,1429.63 2172.25,1459.24 2193.51,1480.82 L2278.74,1396.94 L2390.5,1439.59 C2395.55,1426.34 2398.33,1411.96 2398.33,1396.94 C2398.33,1330.89 2344.79,1277.34 2278.74,1277.34" id="Fill-41" fill="#EE9849"></path>
        <path d="M2261.26,1336.22 L2210.36,1336.22 C2208.36,1336.22 2206.72,1337.86 2206.72,1339.86 C2206.72,1341.86 2208.36,1343.49 2210.36,1343.49 L2261.26,1343.49 C2263.26,1343.49 2264.9,1341.86 2264.9,1339.86 C2264.9,1337.86 2263.26,1336.22 2261.26,1336.22" id="Fill-42" fill="#DD7C2C"></path>
        <path d="M2261.26,1347.74 L2210.36,1347.74 C2208.36,1347.74 2206.72,1349.37 2206.72,1351.37 C2206.72,1353.37 2208.36,1355.01 2210.36,1355.01 L2261.26,1355.01 C2263.26,1355.01 2264.9,1353.37 2264.9,1351.37 C2264.9,1349.37 2263.26,1347.74 2261.26,1347.74" id="Fill-43" fill="#DD7C2C"></path>
        <path d="M2231.38,1359.25 L2210.36,1359.25 C2208.36,1359.25 2206.72,1360.89 2206.72,1362.89 C2206.72,1364.89 2208.36,1366.52 2210.36,1366.52 L2231.38,1366.52 C2233.38,1366.52 2235.01,1364.89 2235.01,1362.89 C2235.01,1360.89 2233.38,1359.25 2231.38,1359.25" id="Fill-44" fill="#DD7C2C"></path>
        <path d="M1778.25,1336.22 L1727.34,1336.22 C1725.34,1336.22 1723.7,1337.86 1723.7,1339.86 C1723.7,1341.86 1725.34,1343.49 1727.34,1343.49 L1778.25,1343.49 C1780.25,1343.49 1781.88,1341.86 1781.88,1339.86 C1781.88,1337.86 1780.25,1336.22 1778.25,1336.22" id="Fill-45" fill="#DD7C2C"></path>
        <path d="M1778.25,1347.74 L1727.34,1347.74 C1725.34,1347.74 1723.7,1349.37 1723.7,1351.37 C1723.7,1353.37 1725.34,1355.01 1727.34,1355.01 L1778.25,1355.01 C1780.25,1355.01 1781.88,1353.37 1781.88,1351.37 C1781.88,1349.37 1780.25,1347.74 1778.25,1347.74" id="Fill-46" fill="#DD7C2C"></path>
        <path d="M1748.36,1359.25 L1727.34,1359.25 C1725.34,1359.25 1723.7,1360.89 1723.7,1362.89 C1723.7,1364.89 1725.34,1366.52 1727.34,1366.52 L1748.36,1366.52 C1750.36,1366.52 1752,1364.89 1752,1362.89 C1752,1360.89 1750.36,1359.25 1748.36,1359.25" id="Fill-47" fill="#DD7C2C"></path>
        <polygon id="Fill-48" fill="#A6C7F9" points="1708.55 1070.44 1791.56 1070.44 1791.56 553.319 1708.55 553.319"></polygon>
        <polygon id="Fill-49" fill="#A6C7F9" points="1844.55 1070.44 1927.56 1070.44 1927.56 409.178 1844.55 409.178"></polygon>
        <polygon id="Fill-50" fill="#A6C7F9" points="1992.94 1070.44 2075.96 1070.44 2075.96 678.374 1992.94 678.374"></polygon>
        <polygon id="Fill-51" fill="#A6C7F9" points="2137.34 1070.44 2220.35 1070.44 2220.35 497.46 2137.34 497.46"></polygon>
        <polygon id="Fill-52" fill="#A6C7F9" points="2282.49 1070.44 2365.5 1070.44 2365.5 755.111 2282.49 755.111"></polygon>
        <path d="M2216.42,422.915 L2146.12,422.915 C2142.12,422.915 2138.84,426.187 2138.84,430.187 C2138.84,434.187 2142.12,437.459 2146.12,437.459 L2216.42,437.459 C2220.42,437.459 2223.69,434.187 2223.69,430.187 C2223.69,426.187 2220.42,422.915 2216.42,422.915" id="Fill-53" fill="#A6C7F9"></path>
        <path d="M2162.13,449.378 L2146.12,449.378 C2142.12,449.378 2138.84,452.651 2138.84,456.651 C2138.84,460.651 2142.12,463.923 2146.12,463.923 L2162.13,463.923 C2166.13,463.923 2169.4,460.651 2169.4,456.651 C2169.4,452.651 2166.13,449.378 2162.13,449.378" id="Fill-54" fill="#A6C7F9"></path>
        <path d="M1926.73,310.292 L1856.43,310.292 C1852.43,310.292 1849.15,313.564 1849.15,317.564 C1849.15,321.564 1852.43,324.836 1856.43,324.836 L1926.73,324.836 C1930.73,324.836 1934,321.564 1934,317.564 C1934,313.564 1930.73,310.292 1926.73,310.292" id="Fill-55" fill="#A6C7F9"></path>
        <path d="M1872.44,336.755 L1856.43,336.755 C1852.43,336.755 1849.15,340.028 1849.15,344.028 C1849.15,348.028 1852.43,351.3 1856.43,351.3 L1872.44,351.3 C1876.44,351.3 1879.71,348.028 1879.71,344.028 C1879.71,340.028 1876.44,336.755 1872.44,336.755" id="Fill-56" fill="#A6C7F9"></path>
        <path d="M2069.6,601.192 L1999.3,601.192 C1995.3,601.192 1992.03,604.465 1992.03,608.465 C1992.03,612.465 1995.3,615.737 1999.3,615.737 L2069.6,615.737 C2073.6,615.737 2076.87,612.465 2076.87,608.465 C2076.87,604.465 2073.6,601.192 2069.6,601.192" id="Fill-57" fill="#A6C7F9"></path>
        <path d="M2015.31,627.656 L1999.3,627.656 C1995.3,627.656 1992.03,630.929 1992.03,634.929 C1992.03,638.929 1995.3,642.201 1999.3,642.201 L2015.31,642.201 C2019.31,642.201 2022.58,638.929 2022.58,634.929 C2022.58,630.929 2019.31,627.656 2015.31,627.656" id="Fill-58" fill="#A6C7F9"></path>
        <path d="M2359.15,678.374 L2288.85,678.374 C2284.85,678.374 2281.57,681.646 2281.57,685.646 C2281.57,689.646 2284.85,692.919 2288.85,692.919 L2359.15,692.919 C2363.15,692.919 2366.42,689.646 2366.42,685.646 C2366.42,681.646 2363.15,678.374 2359.15,678.374" id="Fill-59" fill="#A6C7F9"></path>
        <path d="M2304.86,704.837 L2288.85,704.837 C2284.85,704.837 2281.57,708.11 2281.57,712.11 C2281.57,716.11 2284.85,719.383 2288.85,719.383 L2304.86,719.383 C2308.86,719.383 2312.13,716.11 2312.13,712.11 C2312.13,708.11 2308.86,704.837 2304.86,704.837" id="Fill-60" fill="#A6C7F9"></path>
        <polygon id="Fill-61" fill="#AED3FF" points="698.129 1118.12 1412.24 1118.12 1412.24 716.092 698.129 716.092"></polygon>
        <polygon id="Fill-62" fill="#D2E4FF" points="721.35 1118.12 1435.46 1118.12 1435.46 716.092 721.35 716.092"></polygon>
        <path d="M916.653,778.902 C845.342,778.902 787.534,836.711 787.534,908.021 C787.534,979.332 845.342,1037.14 916.653,1037.14 C987.963,1037.14 1045.77,979.332 1045.77,908.021 C1045.77,836.711 987.963,778.902 916.653,778.902" id="Fill-63" fill="#F3F9FF"></path>
        <path d="M1355.19,835.892 L1141.29,835.892 C1133.53,835.892 1127.19,842.234 1127.19,849.986 C1127.19,857.738 1133.53,864.081 1141.29,864.081 L1355.19,864.081 C1362.94,864.081 1369.28,857.738 1369.28,849.986 C1369.28,842.234 1362.94,835.892 1355.19,835.892" id="Fill-64" fill="#F3F9FF"></path>
        <path d="M1355.19,893.927 L1141.29,893.927 C1133.53,893.927 1127.19,900.27 1127.19,908.021 C1127.19,915.773 1133.53,922.115 1141.29,922.115 L1355.19,922.115 C1362.94,922.115 1369.28,915.773 1369.28,908.021 C1369.28,900.27 1362.94,893.927 1355.19,893.927" id="Fill-65" fill="#F3F9FF"></path>
        <path d="M1355.19,951.962 L1141.29,951.962 C1133.53,951.962 1127.19,958.305 1127.19,966.056 C1127.19,973.808 1133.53,980.15 1141.29,980.15 L1355.19,980.15 C1362.94,980.15 1369.28,973.808 1369.28,966.056 C1369.28,958.305 1362.94,951.962 1355.19,951.962" id="Fill-66" fill="#F3F9FF"></path>
        <path d="M798.435,906.146 L916.655,906.146 L916.655,787.926 C851.367,787.926 798.435,840.857 798.435,906.146" id="Fill-67" fill="#A8D29F"></path>
        <path d="M1034.87,909.951 L798.435,909.951 C798.435,975.238 851.366,1028.17 916.653,1028.17 C916.654,1028.17 916.655,1028.17 916.655,1028.17 C981.942,1028.17 1034.87,975.238 1034.87,909.951" id="Fill-68" fill="#F1A34F"></path>
        <path d="M896.235,845.367 L832.075,845.367 C828.425,845.367 825.438,848.354 825.438,852.005 C825.438,855.655 828.425,858.642 832.075,858.642 L896.235,858.642 C899.886,858.642 902.872,855.655 902.872,852.005 C902.872,848.354 899.886,845.367 896.235,845.367" id="Fill-69" fill="#82B378"></path>
        <path d="M846.688,869.52 L832.075,869.52 C828.425,869.52 825.438,872.506 825.438,876.157 C825.438,879.807 828.425,882.794 832.075,882.794 L846.688,882.794 C850.338,882.794 853.325,879.807 853.325,876.157 C853.325,872.506 850.338,869.52 846.688,869.52" id="Fill-70" fill="#82B378"></path>
        <path d="M991.489,938.852 L927.329,938.852 C923.679,938.852 920.692,941.838 920.692,945.489 C920.692,949.139 923.679,952.126 927.329,952.126 L991.489,952.126 C995.139,952.126 998.126,949.139 998.126,945.489 C998.126,941.838 995.139,938.852 991.489,938.852" id="Fill-71" fill="#DD8936"></path>
        <path d="M941.941,963.003 L927.329,963.003 C923.679,963.003 920.692,965.99 920.692,969.641 C920.692,973.291 923.679,976.278 927.329,976.278 L941.941,976.278 C945.592,976.278 948.579,973.291 948.579,969.641 C948.579,965.99 945.592,963.003 941.941,963.003" id="Fill-72" fill="#DD8936"></path>
        <polygon id="Fill-73" fill="#AED3FF" points="647.833 1601.26 1361.94 1601.26 1361.94 1190.11 647.833 1190.11"></polygon>
        <polygon id="Fill-74" fill="#D2E4FF" points="671.054 1601.26 1385.17 1601.26 1385.17 1190.11 671.054 1190.11"></polygon>
        <path d="M737.229,1382.99 C737.229,1311.68 795.038,1253.87 866.349,1253.87 C937.659,1253.87 995.467,1311.68 995.467,1382.99 C995.467,1454.3 937.659,1512.11 866.349,1512.11 C795.038,1512.11 737.229,1454.3 737.229,1382.99" id="Fill-75" fill="#F3F9FF"></path>
        <path d="M1090.98,1339.05 L1304.88,1339.05 C1312.63,1339.05 1318.98,1332.7 1318.98,1324.95 C1318.98,1317.2 1312.63,1310.86 1304.88,1310.86 L1090.98,1310.86 C1083.23,1310.86 1076.89,1317.2 1076.89,1324.95 C1076.89,1332.7 1083.23,1339.05 1090.98,1339.05" id="Fill-76" fill="#F3F9FF"></path>
        <path d="M1304.88,1368.89 L1090.98,1368.89 C1083.23,1368.89 1076.89,1375.24 1076.89,1382.99 C1076.89,1390.74 1083.23,1397.08 1090.98,1397.08 L1304.88,1397.08 C1312.63,1397.08 1318.98,1390.74 1318.98,1382.99 C1318.98,1375.24 1312.63,1368.89 1304.88,1368.89" id="Fill-77" fill="#F3F9FF"></path>
        <path d="M1304.88,1426.93 L1090.98,1426.93 C1083.23,1426.93 1076.89,1433.27 1076.89,1441.02 C1076.89,1448.77 1083.23,1455.12 1090.98,1455.12 L1304.88,1455.12 C1312.63,1455.12 1318.98,1448.77 1318.98,1441.02 C1318.98,1433.27 1312.63,1426.93 1304.88,1426.93" id="Fill-78" fill="#F3F9FF"></path>
        <path d="M866.351,1385.08 L748.142,1383.58 C748.131,1384.08 748.131,1384.59 748.131,1385.08 C748.131,1450.37 801.063,1503.3 866.351,1503.3 C889.692,1503.3 911.451,1496.53 929.78,1484.85 L866.351,1385.08" id="Fill-79" fill="#F1A34F"></path>
        <path d="M870.705,1422.31 L806.544,1422.31 C802.894,1422.31 799.907,1425.29 799.907,1428.95 C799.907,1432.6 802.894,1435.58 806.544,1435.58 L870.705,1435.58 C874.355,1435.58 877.342,1432.6 877.342,1428.95 C877.342,1425.29 874.355,1422.31 870.705,1422.31" id="Fill-80" fill="#DD8936"></path>
        <path d="M821.157,1446.46 L806.544,1446.46 C802.894,1446.46 799.907,1449.45 799.907,1453.1 C799.907,1456.75 802.894,1459.74 806.544,1459.74 L821.157,1459.74 C824.808,1459.74 827.794,1456.75 827.794,1453.1 C827.794,1449.45 824.808,1446.46 821.157,1446.46" id="Fill-81" fill="#DD8936"></path>
        <polygon id="Fill-82" fill="#AED3FF" points="647.833 650.211 1361.95 650.211 1361.95 277.64 647.833 277.64"></polygon>
        <polygon id="Fill-83" fill="#D2E4FF" points="671.054 650.211 1385.17 650.211 1385.17 277.64 671.054 277.64"></polygon>
        <path d="M737.231,469.399 C737.231,398.089 795.04,340.28 866.35,340.28 C937.661,340.28 995.469,398.089 995.469,469.399 C995.469,540.71 937.661,598.519 866.35,598.519 C795.04,598.519 737.231,540.71 737.231,469.399" id="Fill-84" fill="#F3F9FF"></path>
        <path d="M866.353,351.191 C801.064,351.191 748.133,404.112 748.133,469.4 C748.133,514.125 772.978,553.052 809.616,573.129 C828.554,538.052 866.353,469.4 866.353,469.4 L922.327,573.539 C959.384,553.583 984.562,514.434 984.562,469.4 C984.562,404.112 931.641,351.191 866.353,351.191" id="Fill-85" fill="#A8D29F"></path>
        <path d="M1304.88,397.271 L1090.98,397.271 C1083.23,397.271 1076.89,403.613 1076.89,411.364 L1076.89,411.365 C1076.89,419.116 1083.23,425.458 1090.98,425.458 L1304.88,425.458 C1312.63,425.458 1318.98,419.116 1318.98,411.365 L1318.98,411.364 C1318.98,403.613 1312.63,397.271 1304.88,397.271" id="Fill-86" fill="#F3F9FF"></path>
        <path d="M1304.88,455.305 L1090.98,455.305 C1083.23,455.305 1076.89,461.647 1076.89,469.399 C1076.89,477.151 1083.23,483.494 1090.98,483.494 L1304.88,483.494 C1312.63,483.494 1318.98,477.151 1318.98,469.399 C1318.98,461.647 1312.63,455.305 1304.88,455.305" id="Fill-87" fill="#F3F9FF"></path>
        <path d="M1304.88,513.34 L1090.98,513.34 C1083.23,513.34 1076.89,519.683 1076.89,527.435 C1076.89,535.186 1083.23,541.528 1090.98,541.528 L1304.88,541.528 C1312.63,541.528 1318.98,535.186 1318.98,527.435 C1318.98,519.683 1312.63,513.34 1304.88,513.34" id="Fill-88" fill="#F3F9FF"></path>
        <path d="M870.706,412.94 L806.546,412.94 C802.896,412.94 799.909,415.927 799.909,419.577 C799.909,423.228 802.896,426.214 806.546,426.214 L870.706,426.214 C874.356,426.214 877.343,423.228 877.343,419.577 C877.343,415.927 874.356,412.94 870.706,412.94" id="Fill-89" fill="#82B378"></path>
        <path d="M821.159,437.092 L806.546,437.092 C802.896,437.092 799.909,440.079 799.909,443.729 C799.909,447.38 802.896,450.366 806.546,450.366 L821.159,450.366 C824.81,450.366 827.796,447.38 827.796,443.729 C827.796,440.079 824.81,437.092 821.159,437.092" id="Fill-90" fill="#82B378"></path>
        <path d="M1550.8,921.064 C1550.8,921.064 1634.1,1007.06 1638.1,1039.48 C1642.1,1071.91 1598.47,1122.63 1598.47,1122.63 L1550.8,921.064" id="Fill-91" fill="#E58638"></path>
        <path d="M1515.19,1813.13 C1515.19,1813.13 1512.35,1858.85 1503.51,1859.5 C1502.33,1859.59 1458.65,1859.59 1458.65,1859.59 L1402.89,1859.27 C1402.89,1859.27 1403.25,1845.83 1419.55,1842.99 C1435.85,1840.15 1463.14,1828.69 1473.01,1807.15 C1483.4,1784.49 1515.19,1813.13 1515.19,1813.13" id="Fill-92" fill="#163560"></path>
        <path d="M1639.39,1813.13 C1639.39,1813.13 1636.55,1858.85 1627.71,1859.5 C1626.53,1859.59 1582.85,1859.59 1582.85,1859.59 L1526.92,1859.39 C1526.92,1859.39 1527.46,1845.83 1543.75,1842.99 C1560.05,1840.15 1587.34,1828.69 1597.21,1807.15 C1607.6,1784.49 1639.39,1813.13 1639.39,1813.13" id="Fill-93" fill="#163560"></path>
        <path d="M1453.43,1322.9 C1453.43,1322.9 1468.02,1416.18 1522.42,1581.76 C1576.83,1747.33 1584.24,1819.03 1584.24,1819.03 C1584.24,1819.03 1598.96,1821.17 1614.5,1821.17 C1624.33,1821.17 1642.60074,1817.4 1642.60074,1817.4 C1642.60074,1817.4 1643.1,1636.44 1618.03,1553.18 C1592.96,1469.92 1612.62,1253.01 1612.62,1253.01 L1453.43,1322.9" id="Fill-94" fill="#163560"></path>
        <path d="M1425.03,1258.12 C1425.03,1258.12 1422.97,1398.67 1447.29,1571.26 C1471.6,1743.84 1463.36,1817.1 1463.36,1817.1 C1463.36,1817.1 1483.38,1820.68 1490.42,1820.92 C1497.94,1821.17 1521.61,1819.03 1521.61,1819.03 C1521.61,1819.03 1556.42,1646.39 1546.44,1560.01 C1536.46,1473.63 1594.1,1263.59 1594.1,1263.59 L1425.03,1258.12" id="Fill-95" fill="#1C468A"></path>
        <path d="M1537.79,929.189 L1510.32,949.537 L1470.61,941.178 C1471.16,937.557 1473.78,922.551 1476.17,908.96 C1476.31,908.158 1476.46,907.356 1476.59,906.573 C1478.64,895.008 1480.4,885.073 1480.4,885.073 L1517.49,866.59 L1531.31,859.7 C1531.28,859.943 1530.24,872.535 1530.1,874.372 C1527.5,907.014 1537.79,929.189 1537.79,929.189" id="Fill-96" fill="#FFB27D"></path>
        <path d="M1473.39,918.923 C1474.26,918.557 1527.4,902.876 1533.17,904.782 C1538.95,906.688 1542.36,917.857 1542.36,917.857 L1455.45,937.507 C1455.45,937.507 1462.29,923.598 1473.39,918.923" id="Fill-97" fill="#E58638"></path>
        <path d="M1616.48,1275.47 C1607.48,1316.56 1457.57,1321.43 1418.93,1284.13 C1414.53,1279.88 1414.32,1260.1 1415.98,1233.43 C1419.22,1181.33 1429.63,1102.95 1430.04,1062.9 C1430.23,1043.56 1432.89,1023.78 1436.43,1005.82 C1443.96,967.542 1455.44,937.503 1455.44,937.503 C1455.44,937.503 1528.66,913.833 1542.36,917.858 C1608.37,937.251 1625.49,1234.38 1616.48,1275.47" id="Fill-98" fill="#EE9849"></path>
        <path d="M1415.98,1233.43 C1419.22,1181.33 1429.63,1102.95 1430.04,1062.9 C1430.23,1043.56 1432.89,1023.78 1436.43,1005.82 L1480.48,998.049 C1480.48,998.049 1523.54,1173.94 1415.98,1233.43" id="Fill-99" fill="#E58638"></path>
        <path d="M1439.83,1160.8 C1439.83,1160.8 1442.83,1167.98 1436.52,1172.8 C1430.22,1177.62 1426.13,1185.42 1427.57,1191.13 C1429.02,1196.83 1442.85,1206.14 1447.64,1204.64 C1452.44,1203.14 1462.19,1195.62 1461.14,1192.61 C1460.09,1189.61 1467.71,1166.21 1456.02,1157.2 C1444.33,1148.19 1439.83,1160.8 1439.83,1160.8" id="Fill-100" fill="#FFB27D"></path>
        <path d="M1489.08,926.961 C1489.08,926.961 1446.12,934.999 1411.89,985.439 C1377.67,1035.88 1355.15,1073.38 1361.45,1091.56 C1367.76,1109.74 1425.23,1172.79 1435.14,1172.79 C1445.05,1172.79 1461.04,1165.58 1461.94,1149.37 C1461.94,1149.37 1421.47,1088.72 1429.44,1079.64 C1432.85,1075.76 1481.98,1035.88 1488.99,1053.89 C1500.59,1083.7 1489.08,926.961 1489.08,926.961" id="Fill-101" fill="#EE9849"></path>
        <path d="M1527.31,874.949 C1519.17,890.531 1488.83,904.006 1476.17,908.96 C1476.31,908.158 1476.46,907.356 1476.59,906.573 C1478.64,895.008 1480.4,885.073 1480.4,885.073 L1517.49,866.59 C1525.68,866.464 1530.67,868.536 1527.31,874.949" id="Fill-102" fill="#FCA56B"></path>
        <path d="M1468.46,885.917 C1468.46,885.917 1523.35,903.041 1533.49,868.691 C1543.62,834.343 1557.54,813.419 1522.92,801.034 C1488.3,788.648 1477.59,799.737 1471.42,810.379 C1465.24,821.021 1454.44,880.577 1468.46,885.917" id="Fill-103" fill="#FFB27D"></path>
        <path d="M1473.57,807.069 C1473.57,807.069 1477.07,847.041 1485.34,845.306 C1493.6,843.57 1501.1,842.284 1499.89,854.333 C1498.68,866.381 1487.22,880.295 1512.69,882.426 C1538.17,884.558 1574.79,818.859 1567.79,806.419 C1547.6,770.528 1444.39,763.285 1473.57,807.069" id="Fill-104" fill="#163560"></path>
        <polyline id="Fill-105" fill="#FFB27D" points="485.25 1735.91 501.961 1806.3 526.994 1806.16 527.912 1735.91 485.25 1735.91"></polyline>
        <polyline id="Fill-106" fill="#FFB27D" points="695.812 1738.91 743.362 1806.3 761.895 1782.5 733.276 1729.65 695.812 1738.91"></polyline>
        <path d="M572.187,810.984 C563.546,806.072 553.189,805.537 545.946,805.965 C547.812,804.04 551.48,803.338 551.48,803.338 C546.988,802.67 536.962,807.125 536.962,807.125 C474.482,783.05 464.662,875.047 465.975,896.421 C467.278,917.792 444.979,924.772 412.472,941.611 C350.45,973.743 345.002,1016.77 345.002,1016.77 C345.485,1017.05 345.989,1017.38 346.526,1017.75 C349.603,1012.53 355.938,1002.74 361.28,1001.27 C361.078,1001.74 354.967,1014.74 352.687,1022.2 C370.985,1036.12 405.214,1066.96 429.07,1088.82 C428.964,1084.55 429.134,1078.48 430.695,1075.28 L433.643,1093.03 C446.408,1104.76 455.211,1113.02 455.211,1113.02 C453.634,1095.75 533.326,1004.6 574.903,977.302 C585.024,962.402 588.622,936.079 588.891,934.007 C587.144,954.878 583.573,966.585 580.382,973.177 C615.589,940.774 595.092,824 572.187,810.984" id="Fill-107" fill="#163560"></path>
        <path d="M572.442,978.661 C572.65,978.754 552.367,989.286 537.111,985.113 C522.76,981.2 513.383,962.592 513.581,962.551 C519.659,961.344 521.411,952.992 521.282,917.104 L524.029,917.645 L570.225,926.793 C570.225,926.793 569.174,941.331 569.143,955.026 C569.112,966.526 569.809,977.433 572.442,978.661" id="Fill-108" fill="#FFB27D"></path>
        <path d="M520.201,826.049 C520.201,826.049 542.99,801.788 571.6,824.808 C571.6,824.808 554.949,821.928 520.201,826.049" id="Fill-109" fill="#E37970"></path>
        <path d="M570.225,926.793 C570.225,926.793 569.174,941.331 569.143,955.026 C543.292,954.298 529.628,930.716 524.029,917.645 L570.225,926.793" id="Fill-110" fill="#D68D5D"></path>
        <path d="M519.258,912.616 C519.258,912.616 505.711,891.211 502.46,872.908 C500.138,859.841 506.794,811.404 555.467,818.38 C555.467,818.38 569.604,819.773 582.892,828.748 C593.46,835.886 608.711,851.295 591.659,893.561 L587.229,907.839 L519.258,912.616" id="Fill-111" fill="#163560"></path>
        <path d="M754.35,1764.03 L729.863,1764.78 L703.356,1765.59 C703.356,1765.59 642.133,1697.43 607.791,1588.16 C606.989,1585.62 606.146,1583.04 605.251,1580.44 C586.457,1525.64 547.494,1456.85 526.961,1394.59 C523.693,1384.67 520.758,1375.34 518.125,1366.5 C517.283,1363.67 516.46,1360.89 515.68,1358.15 C500.548,1305.58 496.167,1271.06 492.129,1234.18 L640.395,1235.36 C640.395,1235.36 664.331,1487.21 754.35,1764.03" id="Fill-112" fill="#80BDCC"></path>
        <path d="M619.639,1150.17 C619.265,1220.72 629.988,1250.99 629.988,1250.99 C629.988,1250.99 566.507,1283.25 491.058,1259.5 C490.169,1259.22 428.585,1245.17 428.585,1245.17 C429.849,1242.31 441.077,1194.77 442.307,1192.15 C458.236,1157.94 470.332,1142.94 472.222,1132.42 C475.726,1112.79 475.803,1092.47 474.056,1073.31 C469.453,1022.59 455.761,980.483 455.761,980.483 C476.319,975.806 496.103,967.806 517.5,959.781 C522.422,965.91 536.935,972.104 549.986,971.811 C565.015,971.48 569.708,965.125 569.157,957.965 C585.173,966.876 597.904,975.353 597.904,975.353 C611.516,998.997 639.122,1021.96 641.121,1058.23 C641.616,1067.15 619.649,1148.19 619.639,1150.17" id="Fill-113" fill="#E7F1FD"></path>
        <path d="M492.128,1158.03 C485.646,1167.21 473.221,1222.96 442.307,1229.97 C458.236,1190.23 470.332,1172.81 472.222,1160.59 C475.726,1137.79 475.803,1114.19 474.056,1091.93 C484.405,1073.79 492.128,1061.36 492.128,1061.36 C492.941,1058.42 508.574,1010.09 513.583,1053.29 C518.582,1096.51 499.368,1147.77 492.128,1158.03" id="Fill-114" fill="#5F9AA8"></path>
        <path d="M578.858,939.761 C578.858,939.761 517.696,940.77 517.654,902.672 C517.612,864.574 509.689,839.045 548.738,836.791 C587.787,834.535 595.39,849.064 598.497,861.778 C601.604,874.491 594.767,938.517 578.858,939.761" id="Fill-115" fill="#FFB27D"></path>
        <path d="M596.679,840.595 C587.24,829.154 580.103,831.642 576.096,835.078 C562.879,815.328 521.105,843.89 521.105,843.89 C517.014,871.226 497.301,886.885 497.301,886.885 C497.301,886.885 508.449,893.771 534.149,887.163 C554.375,881.961 569.052,853.175 574.388,841.146 C578.024,844.378 585.7,851.85 588,859.166 C591.048,868.868 592.42,888.84 598.241,888.16 C598.241,888.16 610.857,857.78 596.679,840.595" id="Fill-116" fill="#163560"></path>
        <path d="M501.121,1802.36 C501.121,1802.36 503.137,1816.3 497.934,1831.22 C497.934,1831.22 493.836,1849.89 512.221,1850.24 C530.606,1850.58 535.116,1848.85 533.035,1837.4 C530.954,1825.95 526.994,1806.16 526.994,1806.16 L501.121,1802.36" id="Fill-117" fill="#FFB27D"></path>
        <path d="M534.77,1859.4 C534.77,1859.4 534.75,1859.41 534.71,1859.44 L496.67,1859.44 C496.63,1859.41 496.61,1859.4 496.61,1859.4 C494.53,1849.63 497.93,1831.24 497.93,1831.24 C518.75,1851.14 531.78,1830.74 531.78,1830.74 C535.16,1839.25 534.77,1859.4 534.77,1859.4" id="Fill-118" fill="#C45446"></path>
        <path d="M806.2,1840.14 C806.2,1840.14 772.302,1801.65 761.895,1782.5 L736.69,1795.42 L793.032,1848.33 L806.214,1846.59 L806.2,1840.14" id="Fill-119" fill="#FFB27D"></path>
        <path d="M826.99,1859.33 L779.96,1859.33 C775.82,1855.6 771.87,1848.08 767.03,1838.22 C764.26,1832.57 758.05,1829.46 751.68,1827.75 L751.68,1859.33 L741.95,1859.33 L732.94,1825.75 C726.94,1814.5 731.447,1804.18 735.667,1795.28998 C740.577,1795.28 754.82,1798.83 779.86,1827.6 C788.09,1837.05 797.17,1840.42 806.2,1840.14 C806.32,1840.22 806.45,1840.29 806.57,1840.34 C820.83,1846.88 825.48,1854.92 826.99,1859.33" id="Fill-120" fill="#C45446"></path>
        <path d="M824.71,1002.99 C824.71,1002.99 784.56,1025.44 770.22,1031.91 C765.12,1034.21 755.88,1038.51 746.44,1042.92 C740.74,1045.58 734.97,1048.29 729.98,1050.64 C721.55,1054.6 711.52,1052.43 705.46,1045.35 C683.721,1019.97 627.46,964.949 569.358,958.052 L569.157,957.965 C569.157,957.965 569.166,957.987 569.183,958.029 C569.159,958.026 569.134,958.023 569.11,958.02 L569.431,958.646 C572.697,966.767 604.548,1046.35 605.536,1063.13 C606.576,1080.82 609.698,1352.44 609.698,1352.44 C609.698,1352.44 607.617,1364.93 631.553,1359.73 C655.488,1354.52 661.732,1349.32 661.732,1349.32 C661.732,1349.32 638.837,1181.77 645.082,1123.49 C646.307,1112.06 645.201,1099.2 642.644,1085.93 C678.029,1107.37 719.75,1116.9 719.75,1116.9 C719.75,1116.9 735.31,1110.11 759.49,1095.13 C769.64,1088.83 781.413,1078.79 793,1068.17 C807,1055.33 831.09,1024.33 831.09,1024.33 L824.71,1002.99" id="Fill-121" fill="#E37970"></path>
        <path d="M729.863,1764.78 L703.356,1765.59 C703.356,1765.59 642.133,1697.43 607.791,1588.16 C606.989,1585.62 606.146,1583.04 605.251,1580.44 C586.457,1525.64 547.494,1456.85 526.961,1394.59 C523.693,1384.67 520.758,1375.34 518.125,1366.5 C517.283,1363.67 516.46,1360.89 515.68,1358.15 L537.513,1341.59 C537.513,1341.59 603.066,1447.74 623.359,1547.63 C640.988,1634.4 711.588,1738.81 729.863,1764.78" id="Fill-122" fill="#5F9AA8"></path>
        <path d="M539.792,1556.93 C540.167,1605.51 537.711,1717.2 531.384,1763.44 L507.906,1763.44 C494.929,1763.44 488.456,1763.25 488.456,1763.25 C472.585,1682.86 461.294,1616.34 453.072,1559.02 C446.329,1511.98 440.334,1471.65 435.724,1436.93 C431.083,1402 427.857,1372.74 426.702,1348.03 C426.524,1344.14 426.39,1340.35 426.316,1336.67 C426.244,1332.98 426.223,1329.39 426.254,1325.9 L554.362,1313.42 C552.749,1398.53 539.584,1528.7 539.792,1556.93" id="Fill-123" fill="#80BDCC"></path>
        <path d="M507.906,1763.44 C494.929,1763.44 488.456,1763.25 488.456,1763.25 C472.585,1682.86 461.294,1616.34 453.072,1559.02 C446.329,1511.98 440.334,1471.65 435.724,1436.93 C431.083,1402 427.857,1372.74 426.702,1348.03 L473.709,1375.68 C473.709,1375.68 443.706,1386.26 455.154,1466.4 C466.602,1546.53 491.973,1752.09 507.906,1763.44" id="Fill-124" fill="#5F9AA8"></path>
        <path d="M513.956,1347.24 C513.956,1347.24 504.933,1379.84 473.712,1375.68 C442.492,1371.52 398.096,1352.79 398.096,1352.79 C398.096,1352.79 411.438,1310.63 428.026,1255.24 C448.112,1188.19 472.974,1101.75 484.691,1047.23 C487.98,1031.95 490.228,1019.2 491.061,1010.06 L517.5,959.781 C517.5,959.781 555.583,1046.48 557.664,1068.34 C559.746,1090.19 513.956,1347.24 513.956,1347.24" id="Fill-125" fill="#E37970"></path>
        <path d="M625.457,1092.73 C610.431,1094.71 604.669,1102.69 602.813,1113.46 C601.813,1119.28 598.817,1125.02 596.271,1129.08 C581.303,1129.88 545.658,1131.82 515.71,1133.72 L513.24,1173 C537.841,1169.94 568.074,1163.7 602.866,1151.79 C605.539,1151.33 608.881,1149.67 613.066,1146.24 C634.626,1128.58 646.865,1099.01 646.903167,1094.78 C646.941,1090.54 640.482,1090.76 625.457,1092.73" id="Fill-126" fill="#FFB27D"></path>
        <path d="M512.571,1114.13 C511.177,1149.51 502.852,1218.19 428.62,1254.96 C428.422,1255.05 428.224,1255.16 428.026,1255.24 C448.112,1188.19 472.974,1101.75 484.691,1047.23 C498.325,1067.61 513.331,1094.64 512.571,1114.13" id="Fill-127" fill="#C45446"></path>
        <path d="M517.5,959.781 C517.5,959.781 454.002,964.283 438.739,998.279 C423.476,1032.27 418.619,1145.36 438.045,1178.66 C438.045,1178.66 464.79,1186.28 512.093,1177.44 C512.673,1177.33 513.256,1177.22 513.841,1177.1 C513.841,1177.1 528.932,1140.16 515.402,1132.87 C515.402,1132.87 475.51,1134.96 479.672,1121.77 C483.835,1108.59 517.5,959.781 517.5,959.781" id="Fill-128" fill="#E37970"></path>
        <path d="M867.756,976.308 C833.593,971.918 824.971,1002.99 824.971,1002.99 L831.35,1024.33 C841.879,1025.79 851.095,1023.04 859.585,1010.89 C868.075,998.745 870.413,1003.41 875.81,994.369 C883.132,982.105 871.676,977.536 867.756,976.308" id="Fill-129" fill="#FFB27D"></path>
        <path d="M770.22,1031.91 C765.12,1034.21 755.88,1038.51 746.44,1042.92 C751.49,1051.89 757.81,1068.19 759.49,1095.13 C769.64,1088.83 782.782,1078.34 794,1067.33 C812,1049.67 831.09,1024.33 831.09,1024.33 L824.71,1002.99 C824.71,1002.99 784.56,1025.44 770.22,1031.91" id="Fill-130" fill="#FFB27D"></path>
        <path d="M2582.45,1279.44 C2582.45,1279.44 2558.16,1285.68 2542.72,1281.03 C2527.27,1276.37 2500.7,1284.01 2496.42,1289.64 C2492.14,1295.28 2493.71,1297.51 2501.35,1299.46 C2508.98,1301.4 2536.04,1312.94 2553.83,1306.26 C2571.61,1299.58 2594.8,1299.34 2594.8,1299.34 L2582.45,1279.44" id="Fill-131" fill="#E49963"></path>
        <path d="M2792.4,1068.42 C2792.4,1068.42 2765.11,1262.37 2719.92,1279.74 C2697.63,1288.32 2599.09,1307.75 2569.94,1309.7 C2569.94,1309.7 2562.8,1303.91 2564.54,1280.33 C2564.54,1280.33 2667.78,1242.42 2682.44,1221.81 C2704.27,1191.14 2668.89,1096.49 2696.28,1067.68 C2723.67,1038.87 2769.8,1026.48 2792.4,1068.42" id="Fill-132" fill="#4A75CB"></path>
        <path d="M2788.91,1815.74 L2788.91,1773.45 L2855.49,1773.45 C2857.29,1773.45 2858.76,1771.98 2858.76,1770.19 L2858.76,1763.41 C2858.76,1761.62 2857.29,1760.14 2855.49,1760.14 L2788.91,1760.14 L2788.91,1519.42 C2788.91,1512.67 2783.39,1507.14 2776.63,1507.14 L2763.46,1507.14 C2756.7,1507.14 2751.18,1512.67 2751.18,1519.42 L2751.18,1760.14 L2684.6,1760.14 C2682.8,1760.14 2681.33,1761.62 2681.33,1763.41 L2681.33,1770.19 C2681.33,1771.98 2682.8,1773.45 2684.6,1773.45 L2751.18,1773.45 L2751.18,1815.74 C2703.01,1819.38 2664.41,1836.72 2653.58,1859.13 L2886.51,1859.13 C2875.68,1836.72 2837.08,1819.38 2788.91,1815.74" id="Fill-133" fill="#2B478B"></path>
        <path d="M2783.2,1477.04 C2775.24,1490.55 2766.04,1503.2 2756.55,1515.18 C2727.22,1552.21 2695.29,1582.74 2689.73,1611.6 C2688.62,1617.35 2686.87,1623.54 2684.57,1630.07 C2682.25,1636.68 2679.38,1643.63 2676.06,1650.81 C2663.62,1677.85 2645,1708.14 2626.42,1735.68 C2594.29,1783.28 2564.09,1823 2564.09,1823 L2508.69,1820.64 C2510.91,1815.09 2535.07,1749.36 2567.39,1669.04 C2580.52,1636.43 2594.47,1601.75 2607.94,1568.3 C2609.73,1563.83 2611.53,1559.39 2613.3,1554.98 C2617.42,1544.74 2621.47,1534.66 2625.43,1524.85 C2655.78,1449.43 2679.95,1389.37 2679.95,1389.37 C2679.95,1389.37 2801.26,1343.42 2813.86,1373.2 C2824.24,1397.75 2815.78,1421.8 2783.2,1477.04" id="Fill-134" fill="#163560"></path>
        <path d="M2562.36,1812.93 C2562.36,1812.93 2559.52,1858.64 2550.68,1859.3 C2549.5,1859.39 2505.82,1859.39 2505.82,1859.39 L2450.06,1859.06 C2450.06,1859.06 2450.42,1845.63 2466.72,1842.79 C2483.02,1839.95 2510.3,1828.49 2520.18,1806.95 C2530.56,1784.29 2562.36,1812.93 2562.36,1812.93" id="Fill-135" fill="#163560"></path>
        <path d="M2690.64,1682.33 C2690.64,1682.33 2729.17,1707.09 2725.43,1715.13 C2724.93,1716.2 2703.64,1754.34 2703.64,1754.34 L2676.17,1802.87 C2676.17,1802.87 2664.62,1796 2670.08,1780.39 C2675.55,1764.77 2678.85,1735.37 2664.85,1716.24 C2650.13,1696.13 2690.64,1682.33 2690.64,1682.33" id="Fill-136" fill="#163560"></path>
        <path d="M2638.5,1367.56 C2638.5,1367.56 2486.24,1462.41 2469.24,1526.14 C2452.25,1589.88 2671.79,1725.85 2671.79,1725.85 C2671.79,1725.85 2695.87,1704.61 2700.11,1689.03 C2700.11,1689.03 2600.88,1570.14 2579.35,1543.49 C2566.13,1527.12 2774.83,1486.83 2800.32,1447.17 C2825.82,1407.51 2816.69,1374.14 2816.69,1374.14 L2638.5,1367.56" id="Fill-137" fill="#1C468A"></path>
        <path d="M2925.86,1489.35 L2614.23,1489.35 C2608,1489.35 2602.9,1494.45 2602.9,1500.68 L2602.9,1563.01 C2602.9,1569.24 2608,1574.34 2614.23,1574.34 L2925.86,1574.34 C2932.09,1574.34 2937.19,1569.24 2937.19,1563.01 L2937.19,1500.68 C2937.19,1494.45 2932.09,1489.35 2925.86,1489.35" id="Fill-138" fill="#EE9849"></path>
        <path d="M2708.91,1035.17 C2693.95,1044.43 2685.71,1056.19 2685.71,1056.19 C2722.19,1065.63 2782.66,1031.82 2782.66,1031.82 C2782.66,1031.82 2759.18,1016.05 2750.48,981.382 C2750.04,979.633 2749.64,977.84 2749.29,976.004 C2748.15,970.166 2747.44,963.845 2747.31,957.024 L2730.56,972.035 L2702.69,996.997 C2702.69,996.997 2703.32,1007.36 2706.81,1025.17 C2707.42,1028.28 2708.11,1031.62 2708.91,1035.17" id="Fill-139" fill="#E49963"></path>
        <path d="M2821.11,1207.25 C2815.89,1277.53 2824.68,1384.37 2818.75,1402.88 C2813.63,1418.84 2753.43,1409.39 2730.17,1404.06 C2721.56,1402.09 2711.13,1399.27 2700.36,1395.94 C2670.31,1386.63 2637.57,1373.35 2634.05,1363.48 C2633.92,1363.1 2633.8,1362.72 2633.73,1362.35 C2633.41,1360.92 2633.48,1359.57 2633.79,1358.21 C2634.96,1353.19 2639.48,1347.75 2640.01,1335.3 C2640.6,1321.4 2640.51,1305.04 2641.04,1287.44 C2641.06,1285.45 2641.09,1283.29 2641.3,1281.32 L2641.31,1280.6 C2641.32,1280.22 2641.33,1279.85 2641.34,1279.47 C2641.85,1259.85 2642.87,1239.21 2644.06,1218.75 C2644.82,1205.89 2645.69,1193.17 2646.7,1180.97 C2649.32,1149.49 2652.85,1121.5 2657.53,1103.8 C2665.17,1074.95 2682.01,1056.13 2697.34,1042.34 L2708.43,1032.83 C2720.8,1035.53 2735.43,1033.74 2748.66,1027.47 C2762.98,1020.67 2767.93,1015.8 2770.42,1017.64 C2803.5,1043.15 2827.28,1121.34 2821.11,1207.25" id="Fill-140" fill="#739AF0"></path>
        <path d="M2700.53,1396.08 C2670.48,1386.77 2637.74,1373.49 2634.23,1363.62 C2634.09,1363.24 2633.97,1362.86 2633.9,1362.49 C2633.92,1361.11 2633.94,1359.73 2633.96,1358.35 C2635.14,1353.33 2639.65,1347.89 2640.18,1335.44 C2640.77,1321.54 2640.68,1305.18 2641.21,1287.58 C2641.23,1285.59 2641.26,1283.43 2641.48,1281.46 L2641.49,1280.74 C2641.5,1280.36 2641.5,1279.99 2641.51,1279.61 L2755.01,1228.14 C2755.01,1228.14 2761.55,1319.62 2700.53,1396.08" id="Fill-141" fill="#4A75CB"></path>
        <path d="M2702.69,996.997 C2702.69,996.997 2703.32,1007.36 2706.81,1025.17 C2734.02,1016.38 2746.36,991.806 2750.48,981.382 C2751.65,978.437 2752.16,976.617 2752.16,976.617 C2752.16,976.617 2751.11,976.389 2749.29,976.004 C2745.46,975.191 2738.26,973.664 2730.56,972.035 L2702.69,996.997" id="Fill-142" fill="#D68D5D"></path>
        <path d="M2691.68,996.724 C2691.68,996.724 2751.45,1003.47 2755.08,966.176 C2758.7,928.886 2768.86,904.643 2730.85,898.761 C2692.84,892.879 2684.03,906.387 2679.79,918.539 C2675.55,930.691 2676.22,994.009 2691.68,996.724" id="Fill-143" fill="#E49963"></path>
        <path d="M2754.82,968.75 C2754.82,968.75 2751.03,919.251 2696.62,914.124 C2659.35,910.612 2680.13,878.535 2684.1,873.419 C2684.1,873.419 2712.66,877.334 2741.92,882.17 C2803.36,892.32 2760.85,961.044 2754.82,968.75" id="Fill-144" fill="#2B478B"></path>
        <polyline id="Fill-145" fill="#4A75CB" points="2465.48 1328.04 2460.25 1329.74 2415.73 1192.73 2420.96 1191.03 2465.48 1328.04"></polyline>
        <polyline id="Fill-146" fill="#4A75CB" points="2611.19 1317.47 2460.05 1320.7 2460.25 1329.74 2611.38 1326.52 2611.19 1317.47"></polyline>
        <path d="M2594.95,1309.26 C2594.95,1309.26 2571.5,1318.14 2555.64,1315.21 C2539.77,1312.29 2514.2,1322.82 2510.57,1328.89 C2506.94,1334.95 2508.74,1337 2516.55,1338.09 C2524.35,1339.18 2552.52,1347.67 2569.46,1339.07 C2586.4,1330.47 2609.42,1327.67 2609.42,1327.67 L2594.95,1309.26" id="Fill-147" fill="#E49963"></path>
        <path d="M2780.36,1076.38 C2780.36,1076.38 2774.62,1272.16 2731.62,1294.4 C2710.41,1305.38 2614.61,1335.56 2585.85,1340.71 C2585.85,1340.71 2578.12,1335.74 2577.25,1312.12 C2577.25,1312.12 2675.68,1263.06 2687.98,1240.96 C2706.3,1208.06 2660.7,1117.89 2684.75,1086.24 C2708.79,1054.58 2753.28,1037.19 2780.36,1076.38" id="Fill-148" fill="#739AF0"></path>
        <path d="M3441.83,1865.37 L377.209,1865.37 C375.565,1865.37 374.22,1864.02 374.22,1862.38 C374.22,1860.73 375.565,1859.39 377.209,1859.39 L3441.83,1859.39 C3443.47,1859.39 3444.82,1860.73 3444.82,1862.38 C3444.82,1864.02 3443.47,1865.37 3441.83,1865.37" id="Fill-149" fill="#202F4E"></path>
    </g>
</svg>