<?xml version="1.0" encoding="UTF-8"?>
<svg width="384px" height="384px" viewBox="0 0 384 384" version="1.1" xmlns="http://www.w3.org/2000/svg" xmlns:xlink="http://www.w3.org/1999/xlink">
    <title>call</title>
    <g id="Page-1" stroke="none" stroke-width="1" fill="none" fill-rule="evenodd">
        <g id="call" fill="#FFFFFF" fill-rule="nonzero">
            <path d="M353.188,252.052 C329.678,252.052 306.594,248.375 284.719,241.146 C274,237.49 260.823,240.844 254.281,247.563 L211.104,280.157 C161.031,253.428 130.187,222.594 103.823,172.897 L135.458,130.845 C143.677,122.637 146.625,110.647 143.093,99.397 C135.833,77.407 132.145,54.334 132.145,30.814 C132.146,13.823 118.323,0 101.333,0 L30.813,0 C13.823,0 0,13.823 0,30.813 C0,225.563 158.438,384 353.188,384 C370.178,384 384.001,370.177 384.001,353.187 L384.001,282.864 C384.001,265.875 370.177,252.052 353.188,252.052 Z" id="Path"></path>
        </g>
    </g>
</svg>