<?xml version="1.0" encoding="UTF-8"?>
<svg width="248px" height="512px" viewBox="0 0 248 512" version="1.1" xmlns="http://www.w3.org/2000/svg" xmlns:xlink="http://www.w3.org/1999/xlink">
    <title>down-arrow</title>
    <g id="Page-1" stroke="none" stroke-width="1" fill="none" fill-rule="evenodd">
        <g id="down-arrow" fill="#FFFFFF" fill-rule="nonzero">
            <path d="M242.108,373.328 C234.279,365.536 221.616,365.566 213.824,373.395 L144,443.557 L144,20 C144,8.954 135.046,0 124,0 C112.954,0 104,8.954 104,20 L104,443.558 L34.176,373.394 C26.384,365.565 13.721,365.535 5.892,373.327 C-1.938,381.12 -1.967,393.783 5.824,401.612 L109.824,506.116 C109.83,506.123 109.837,506.128 109.843,506.134 C117.635,513.943 130.339,513.968 138.157,506.135 C138.163,506.128 138.17,506.123 138.176,506.117 L242.176,401.613 C249.966,393.785 249.939,381.121 242.108,373.328 Z" id="Path"></path>
        </g>
    </g>
</svg>