<?xml version="1.0" encoding="UTF-8"?>
<svg width="759px" height="331px" viewBox="0 0 759 331" version="1.1" xmlns="http://www.w3.org/2000/svg" xmlns:xlink="http://www.w3.org/1999/xlink">
    <title>logo fondo blanco</title>
    <g id="logo" stroke="none" stroke-width="1" fill="none" fill-rule="evenodd">
        <g id="logo-fondo-blanco" transform="translate(-149.000000, -85.000000)" fill="#FF0000">
            <g id="Group" transform="translate(149.000000, 86.000000)">
                <g id="Logo-Eduardo" transform="translate(379.500000, 164.500000) rotate(270.000000) translate(-379.500000, -164.500000) translate(214.217763, -214.348485)">
                    <path d="M284.635526,-6.30756646e-15 L308.582895,-6.30756646e-15 C313.001173,-7.11919096e-15 316.582895,3.581722 316.582895,8 L316.582895,314.313496 C316.582895,318.731774 313.001173,322.313496 308.582895,322.313496 L284.635526,322.313496 C280.217248,322.313496 276.635526,318.731774 276.635526,314.313496 L276.635526,8 C276.635526,3.581722 280.217248,-5.49594196e-15 284.635526,-6.30756646e-15 Z" id="Rectangle-2-Copy"></path>
                    <path d="M152.809211,-3.04820943e-14 L176.756579,-3.04820943e-14 C181.174857,-3.12937188e-14 184.756579,3.581722 184.756579,8 L184.756579,232.233662 C184.756579,236.65194 181.174857,240.233662 176.756579,240.233662 L152.809211,240.233662 C148.390933,240.233662 144.809211,236.65194 144.809211,232.233662 L144.809211,8 C144.809211,3.581722 148.390933,-2.96704698e-14 152.809211,-3.04820943e-14 Z" id="Rectangle-2-Copy-4"></path>
                    <path d="M24.9776316,-5.39240606e-14 L48.925,-5.39240606e-14 C53.343278,-5.47356851e-14 56.925,3.581722 56.925,8 L56.925,314.313496 C56.925,318.731774 53.343278,322.313496 48.925,322.313496 L24.9776316,322.313496 C20.5593536,322.313496 16.9776316,318.731774 16.9776316,314.313496 L16.9776316,8 C16.9776316,3.581722 20.5593536,-5.31124361e-14 24.9776316,-5.39240606e-14 Z" id="Rectangle-2"></path>
                    <polygon id="Rectangle-2-Copy-3" transform="translate(165.282566, 417.730303) rotate(-90.000000) translate(-165.282566, -417.730303) " points="160.796202 252.947079 169.768929 252.947079 169.768929 582.512869 160.796202 582.512869"></polygon>
                    <path d="M316.582895,478.545455 L316.582088,528.433455 L221.130669,618.95271 L316.582088,709.471455 L316.582895,757.69697 L169.401088,618.121212 L316.582895,478.545455 Z" id="Combined-Shape"></path>
                    <polygon id="Rectangle-2-Copy-5" transform="translate(111.167407, 737.757576) rotate(-90.000000) translate(-111.167407, -737.757576) " points="91.2280131 643.275932 131.106801 643.275932 131.106801 832.23922 91.2280131 832.23922"></polygon>
                </g>
            </g>
        </g>
    </g>
</svg>