<?xml version="1.0" encoding="UTF-8"?>
<svg width="512px" height="512px" viewBox="0 0 512 512" version="1.1" xmlns="http://www.w3.org/2000/svg" xmlns:xlink="http://www.w3.org/1999/xlink">
    <title>facebook</title>
    <g id="Page-1" stroke="none" stroke-width="1" fill="none" fill-rule="evenodd">
        <g id="facebook" fill="#FFFFFF" fill-rule="nonzero">
            <path d="M452,0 L60,0 C26.916,0 0,26.916 0,60 L0,452 C0,485.084 26.916,512 60,512 L452,512 C485.084,512 512,485.084 512,452 L512,60 C512,26.916 485.084,0 452,0 Z M472,452 C472,463.028 463.028,472 452,472 L338,472 L338,309 L399.79,309 L410,247 L338,247 L338,204 C338,187.025 351.025,174 368,174 L409,174 L409,112 L368,112 C317.077,112 276.022,153.25 276.022,204.174 L276.022,247 L216,247 L216,309 L276.022,309 L276.022,472 L60,472 C48.972,472 40,463.028 40,452 L40,60 C40,48.972 48.972,40 60,40 L452,40 C463.028,40 472,48.972 472,60 L472,452 Z" id="Shape"></path>
        </g>
    </g>
</svg>