<?xml version="1.0" encoding="UTF-8"?>
<svg width="513px" height="512px" viewBox="0 0 513 512" version="1.1" xmlns="http://www.w3.org/2000/svg" xmlns:xlink="http://www.w3.org/1999/xlink">
    <title>instagram</title>
    <g id="Page-1" stroke="none" stroke-width="1" fill="none" fill-rule="evenodd">
        <g id="instagram" fill="#FFFFFF" fill-rule="nonzero">
            <path d="M510.949219,150.5 C509.75,123.300781 505.351562,104.601562 499.050781,88.398438 C492.550781,71.199219 482.550781,55.800781 469.449219,43 C456.648438,30 441.148438,19.898438 424.148438,13.5 C407.851562,7.199219 389.25,2.800781 362.050781,1.601562 C334.648438,0.300781 325.949219,0 256.449219,0 C186.949219,0 178.25,0.300781 150.949219,1.5 C123.75,2.699219 105.050781,7.101562 88.851562,13.398438 C71.648438,19.898438 56.25,29.898438 43.449219,43 C30.449219,55.800781 20.351562,71.300781 13.949219,88.300781 C7.648438,104.601562 3.25,123.199219 2.050781,150.398438 C0.75,177.800781 0.449219,186.5 0.449219,256 C0.449219,325.5 0.75,334.199219 1.949219,361.5 C3.148438,388.699219 7.550781,407.398438 13.851562,423.601562 C20.351562,440.800781 30.449219,456.199219 43.449219,469 C56.25,482 71.75,492.101562 88.75,498.5 C105.050781,504.800781 123.648438,509.199219 150.851562,510.398438 C178.148438,511.601562 186.851562,511.898438 256.351562,511.898438 C325.851562,511.898438 334.550781,511.601562 361.851562,510.398438 C389.050781,509.199219 407.75,504.800781 423.949219,498.5 C458.351562,485.199219 485.550781,458 498.851562,423.601562 C505.148438,407.300781 509.550781,388.699219 510.75,361.5 C511.949219,334.199219 512.25,325.5 512.25,256 C512.25,186.5 512.148438,177.800781 510.949219,150.5 Z M464.851562,359.5 C463.75,384.5 459.550781,398 456.050781,407 C447.449219,429.300781 429.75,447 407.449219,455.601562 C398.449219,459.101562 384.851562,463.300781 359.949219,464.398438 C332.949219,465.601562 324.851562,465.898438 256.550781,465.898438 C188.25,465.898438 180.050781,465.601562 153.148438,464.398438 C128.148438,463.300781 114.648438,459.101562 105.648438,455.601562 C94.550781,451.5 84.449219,445 76.25,436.5 C67.75,428.199219 61.25,418.199219 57.148438,407.101562 C53.648438,398.101562 49.449219,384.5 48.351562,359.601562 C47.148438,332.601562 46.851562,324.5 46.851562,256.199219 C46.851562,187.898438 47.148438,179.699219 48.351562,152.800781 C49.449219,127.800781 53.648438,114.300781 57.148438,105.300781 C61.25,94.199219 67.75,84.101562 76.351562,75.898438 C84.648438,67.398438 94.648438,60.898438 105.75,56.800781 C114.75,53.300781 128.351562,49.101562 153.25,48 C180.25,46.800781 188.351562,46.5 256.648438,46.5 C325.050781,46.5 333.148438,46.800781 360.050781,48 C385.050781,49.101562 398.550781,53.300781 407.550781,56.800781 C418.648438,60.898438 428.75,67.398438 436.949219,75.898438 C445.449219,84.199219 451.949219,94.199219 456.050781,105.300781 C459.550781,114.300781 463.75,127.898438 464.851562,152.800781 C466.050781,179.800781 466.351562,187.898438 466.351562,256.199219 C466.351562,324.5 466.050781,332.5 464.851562,359.5 Z" id="Shape"></path>
            <path d="M256.449219,124.5 C183.851562,124.5 124.949219,183.398438 124.949219,256 C124.949219,328.601562 183.851562,387.5 256.449219,387.5 C329.050781,387.5 387.949219,328.601562 387.949219,256 C387.949219,183.398438 329.050781,124.5 256.449219,124.5 Z M256.449219,341.300781 C209.351562,341.300781 171.148438,303.101562 171.148438,256 C171.148438,208.898438 209.351562,170.699219 256.449219,170.699219 C303.550781,170.699219 341.75,208.898438 341.75,256 C341.75,303.101562 303.550781,341.300781 256.449219,341.300781 L256.449219,341.300781 Z" id="Shape"></path>
            <path d="M423.851562,119.300781 C423.851562,136.253906 410.105469,150 393.148438,150 C376.195312,150 362.449219,136.253906 362.449219,119.300781 C362.449219,102.34375 376.195312,88.601562 393.148438,88.601562 C410.105469,88.601562 423.851562,102.34375 423.851562,119.300781 L423.851562,119.300781 Z" id="Path"></path>
        </g>
    </g>
</svg>