<?xml version="1.0" encoding="UTF-8"?>
<svg width="633px" height="192px" viewBox="0 0 633 192" version="1.1" xmlns="http://www.w3.org/2000/svg" xmlns:xlink="http://www.w3.org/1999/xlink">
    <title>Logo_EPS_color</title>
    <g id="Page-1" stroke="none" stroke-width="1" fill="none" fill-rule="evenodd">
        <g id="Logo_EPS_color">
            <path d="M128.08,0.25 L36.22,23.88 C35.15,24.27 34.37,24.98 33.88,26.02 L0.25,110.85 C-0.19,112.21 -0.05,113.4 0.63,114.33 L58.93,189.86 C59.82,190.97 60.96,191.32 62.48,191.1 L154.33,174.9 C156.27,174.44 157.77,173.3 158.61,171.14 L190.51,89 C191.21,87.08 191.33,85.4 190.09,83.81 L131.48,1.17 C130.69,0.21 129.69,-0.1 128.08,0.25 L128.08,0.25 Z M94.16,15.64 L61.33,32.99 L49.3,28.46 L94.16,15.64 L94.16,15.64 Z M71.04,35.14 L127.23,7.54 L155.23,63.54 L71.04,35.14 L71.04,35.14 Z M66.9,41.45 L155.43,71.62 L89.77,123.48 L66.9,41.45 L66.9,41.45 Z M93.08,128.82 L158.15,78.15 L151.25,165.69 L93.08,128.82 L93.08,128.82 Z M59.95,44.23 L82.23,124.87 L8.69,109.69 L59.95,44.23 L59.95,44.23 Z M56.16,37.79 L15.05,90.94 L39.17,32 L56.16,37.79 L56.16,37.79 Z M11.84,116.79 L81.84,131.58 L61.33,180.28 L11.84,116.79 L11.84,116.79 Z M68.43,183.04 L88.94,133.94 L144.54,169.23 L68.43,183.04 L68.43,183.04 Z M160.12,147.55 L166.23,77.16 L183.38,88.79 L160.12,147.55 L160.12,147.55 Z M164.65,66.51 L155.11,45.93 L174.31,73.8 L164.65,66.51 L164.65,66.51 Z" id="Shape" fill="#245880"></path>
            <path d="M224.65,34.91 L233.74,34.91 L233.74,129.89 L224.65,129.89 L224.65,34.91 L224.65,34.91 Z M317.71,99.04 L261.39,99.04 C261.9,106.04 264.59,111.69 269.45,116 C274.31,120.31 280.46,122.46 287.88,122.46 C292.06,122.46 295.9,121.71 299.4,120.22 C302.9,118.73 305.93,116.53 308.49,113.63 L313.61,119.52 C310.62,123.1 306.89,125.83 302.41,127.71 C297.93,129.59 293,130.53 287.63,130.53 C280.72,130.53 274.6,129.06 269.26,126.11 C263.93,123.17 259.77,119.09 256.78,113.89 C253.79,108.68 252.3,102.8 252.3,96.23 C252.3,89.66 253.73,83.77 256.59,78.57 C259.45,73.36 263.37,69.31 268.37,66.41 C273.36,63.51 278.97,62.06 285.2,62.06 C291.43,62.06 297.02,63.51 301.97,66.41 C306.92,69.31 310.8,73.34 313.62,78.51 C316.44,83.68 317.84,89.58 317.84,96.24 L317.71,99.04 L317.71,99.04 Z M285.2,69.86 C278.71,69.86 273.27,71.93 268.88,76.07 C264.49,80.21 261.99,85.61 261.39,92.26 L309.13,92.26 C308.53,85.6 306.04,80.21 301.64,76.07 C297.25,71.93 291.77,69.86 285.2,69.86 L285.2,69.86 Z M358.03,62.05 C366.82,62.05 373.56,64.25 378.25,68.64 C382.94,73.03 385.29,79.54 385.29,88.16 L385.29,129.89 L376.59,129.89 L376.59,119.39 C374.54,122.89 371.53,125.62 367.57,127.58 C363.6,129.54 358.89,130.52 353.43,130.52 C345.92,130.52 339.95,128.73 335.51,125.14 C331.07,121.56 328.85,116.82 328.85,110.93 C328.85,105.21 330.92,100.6 335.06,97.11 C339.2,93.61 345.79,91.86 354.84,91.86 L376.22,91.86 L376.22,87.76 C376.22,81.96 374.6,77.54 371.36,74.51 C368.12,71.48 363.38,69.97 357.15,69.97 C352.88,69.97 348.79,70.67 344.86,72.08 C340.93,73.49 337.56,75.43 334.75,77.9 L330.65,71.12 C334.06,68.22 338.16,65.98 342.94,64.4 C347.7,62.84 352.74,62.05 358.03,62.05 L358.03,62.05 Z M354.83,123.36 C359.95,123.36 364.34,122.19 368.01,119.84 C371.68,117.49 374.41,114.1 376.2,109.66 L376.2,98.65 L355.08,98.65 C343.56,98.65 337.8,102.66 337.8,110.68 C337.8,114.61 339.29,117.7 342.28,119.96 C345.27,122.23 349.45,123.36 354.83,123.36 L354.83,123.36 Z M471.69,34.91 L471.69,129.89 L462.99,129.89 L462.99,116.58 C460.26,121.1 456.65,124.56 452.17,126.95 C447.69,129.34 442.63,130.53 437,130.53 C430.69,130.53 424.97,129.08 419.85,126.18 C414.73,123.28 410.72,119.23 407.82,114.02 C404.92,108.81 403.47,102.88 403.47,96.23 C403.47,89.57 404.92,83.64 407.82,78.44 C410.72,73.23 414.73,69.2 419.85,66.34 C424.97,63.48 430.69,62.05 437,62.05 C442.46,62.05 447.39,63.18 451.78,65.44 C456.17,67.7 459.78,71.01 462.6,75.36 L462.6,34.91 L471.69,34.91 L471.69,34.91 Z M437.77,122.47 C442.46,122.47 446.71,121.38 450.51,119.21 C454.31,117.03 457.29,113.94 459.47,109.93 C461.65,105.92 462.73,101.35 462.73,96.23 C462.73,91.11 461.64,86.54 459.47,82.53 C457.29,78.52 454.31,75.43 450.51,73.25 C446.71,71.07 442.47,69.99 437.77,69.99 C432.99,69.99 428.7,71.08 424.91,73.25 C421.11,75.43 418.13,78.52 415.95,82.53 C413.77,86.54 412.69,91.11 412.69,96.23 C412.69,101.35 413.78,105.92 415.95,109.93 C418.13,113.94 421.11,117.03 424.91,119.21 C428.71,121.38 432.99,122.47 437.77,122.47 L437.77,122.47 Z M555.66,99.04 L499.34,99.04 C499.85,106.04 502.54,111.69 507.4,116 C512.26,120.31 518.41,122.46 525.83,122.46 C530.01,122.46 533.85,121.71 537.35,120.22 C540.85,118.73 543.88,116.53 546.44,113.63 L551.56,119.52 C548.57,123.1 544.84,125.83 540.36,127.71 C535.88,129.59 530.95,130.53 525.58,130.53 C518.67,130.53 512.55,129.06 507.21,126.11 C501.88,123.17 497.72,119.09 494.73,113.89 C491.74,108.68 490.25,102.8 490.25,96.23 C490.25,89.66 491.68,83.77 494.54,78.57 C497.4,73.36 501.32,69.31 506.32,66.41 C511.32,63.51 516.92,62.06 523.15,62.06 C529.38,62.06 534.97,63.51 539.92,66.41 C544.87,69.31 548.75,73.34 551.57,78.51 C554.39,83.67 555.79,89.58 555.79,96.24 L555.66,99.04 L555.66,99.04 Z M523.15,69.86 C516.66,69.86 511.22,71.93 506.83,76.07 C502.44,80.21 499.94,85.61 499.34,92.26 L547.08,92.26 C546.48,85.6 543.99,80.21 539.59,76.07 C535.2,71.93 529.72,69.86 523.15,69.86 L523.15,69.86 Z M583.05,75.75 C585.18,71.23 588.36,67.81 592.59,65.51 C596.81,63.21 602.04,62.05 608.27,62.05 L608.27,70.88 L606.09,70.75 C599.01,70.75 593.46,72.93 589.45,77.28 C585.44,81.63 583.43,87.73 583.43,95.58 L583.43,129.88 L574.34,129.88 L574.34,62.55 L583.04,62.55 L583.04,75.75 L583.05,75.75 Z M625.29,130.53 C623.41,130.53 621.81,129.85 620.49,128.48 C619.17,127.11 618.51,125.45 618.51,123.49 C618.51,121.53 619.17,119.88 620.49,118.56 C621.81,117.24 623.41,116.58 625.29,116.58 C627.17,116.58 628.79,117.24 630.15,118.56 C631.52,119.88 632.2,121.53 632.2,123.49 C632.2,125.45 631.52,127.12 630.15,128.48 C628.79,129.85 627.17,130.53 625.29,130.53 L625.29,130.53 Z" id="Shape" fill="#000000" fill-rule="nonzero"></path>
            <path d="M231.01,179.06 C229.71,179.06 228.46,178.87 227.27,178.5 C226.08,178.12 225.15,177.65 224.48,177.08 L225.46,175.37 C226.13,175.9 226.97,176.33 227.99,176.67 C229.01,177.01 230.06,177.17 231.16,177.17 C232.62,177.17 233.71,176.94 234.41,176.48 C235.11,176.02 235.46,175.38 235.46,174.54 C235.46,173.95 235.27,173.49 234.88,173.15 C234.49,172.81 234.01,172.56 233.42,172.39 C232.83,172.22 232.05,172.05 231.07,171.89 C229.77,171.65 228.72,171.4 227.93,171.14 C227.14,170.89 226.46,170.45 225.9,169.84 C225.34,169.23 225.06,168.39 225.06,167.31 C225.06,165.97 225.62,164.87 226.74,164.02 C227.86,163.17 229.41,162.74 231.41,162.74 C232.45,162.74 233.48,162.88 234.52,163.15 C235.56,163.42 236.41,163.79 237.08,164.23 L236.13,165.97 C234.81,165.05 233.23,164.6 231.4,164.6 C230.02,164.6 228.98,164.84 228.27,165.33 C227.57,165.82 227.22,166.46 227.22,167.25 C227.22,167.86 227.42,168.35 227.81,168.71 C228.2,169.07 228.7,169.35 229.29,169.52 C229.88,169.69 230.69,169.87 231.73,170.05 C233.01,170.29 234.04,170.54 234.81,170.78 C235.58,171.02 236.24,171.44 236.79,172.03 C237.34,172.62 237.61,173.43 237.61,174.47 C237.61,175.87 237.03,176.99 235.86,177.81 C234.7,178.65 233.08,179.06 231.01,179.06 L231.01,179.06 Z M248.18,179.06 C246.63,179.06 245.24,178.71 244,178.01 C242.76,177.31 241.78,176.34 241.07,175.1 C240.36,173.86 240,172.46 240,170.89 C240,169.32 240.36,167.92 241.07,166.68 C241.78,165.44 242.76,164.47 244,163.78 C245.24,163.09 246.63,162.74 248.18,162.74 C249.73,162.74 251.12,163.09 252.36,163.78 C253.6,164.47 254.57,165.44 255.27,166.68 C255.97,167.92 256.32,169.32 256.32,170.89 C256.32,172.46 255.97,173.86 255.27,175.1 C254.57,176.34 253.6,177.31 252.36,178.01 C251.12,178.71 249.72,179.06 248.18,179.06 L248.18,179.06 Z M248.18,177.14 C249.32,177.14 250.34,176.88 251.25,176.36 C252.15,175.84 252.86,175.1 253.37,174.15 C253.88,173.19 254.13,172.11 254.13,170.89 C254.13,169.67 253.88,168.58 253.37,167.63 C252.86,166.67 252.16,165.94 251.25,165.42 C250.35,164.9 249.32,164.64 248.18,164.64 C247.04,164.64 246.02,164.9 245.11,165.42 C244.21,165.94 243.49,166.68 242.98,167.63 C242.46,168.59 242.2,169.67 242.2,170.89 C242.2,172.11 242.46,173.2 242.98,174.15 C243.5,175.11 244.21,175.84 245.11,176.36 C246.02,176.88 247.04,177.14 248.18,177.14 L248.18,177.14 Z M260.75,156.28 L262.92,156.28 L262.92,178.91 L260.75,178.91 L260.75,156.28 L260.75,156.28 Z M283.41,162.87 L283.41,178.91 L281.34,178.91 L281.34,175.98 C280.77,176.96 279.99,177.71 278.99,178.25 C277.99,178.79 276.85,179.06 275.57,179.06 C273.48,179.06 271.82,178.48 270.61,177.31 C269.4,176.14 268.8,174.43 268.8,172.17 L268.8,162.87 L270.97,162.87 L270.97,171.96 C270.97,173.65 271.39,174.93 272.22,175.8 C273.05,176.67 274.24,177.11 275.79,177.11 C277.48,177.11 278.81,176.6 279.79,175.57 C280.77,174.54 281.25,173.11 281.25,171.28 L281.25,162.86 L283.41,162.86 L283.41,162.87 Z M296.12,179.06 C294.53,179.06 293.12,178.71 291.87,178.02 C290.62,177.33 289.64,176.36 288.93,175.11 C288.22,173.86 287.86,172.45 287.86,170.89 C287.86,169.33 288.22,167.92 288.93,166.68 C289.64,165.44 290.62,164.47 291.87,163.78 C293.12,163.09 294.54,162.74 296.12,162.74 C297.5,162.74 298.74,163.01 299.83,163.55 C300.92,164.09 301.78,164.88 302.41,165.91 L300.79,167.01 C300.26,166.22 299.59,165.62 298.78,165.23 C297.97,164.83 297.08,164.63 296.13,164.63 C294.97,164.63 293.93,164.89 293,165.41 C292.07,165.93 291.35,166.67 290.83,167.62 C290.31,168.58 290.05,169.66 290.05,170.88 C290.05,172.12 290.31,173.21 290.83,174.16 C291.35,175.11 292.07,175.84 293,176.36 C293.92,176.88 294.97,177.14 296.13,177.14 C297.09,177.14 297.97,176.95 298.78,176.56 C299.59,176.17 300.26,175.58 300.79,174.79 L302.41,175.89 C301.78,176.93 300.92,177.71 299.82,178.25 C298.72,178.8 297.49,179.06 296.12,179.06 L296.12,179.06 Z M306.65,162.87 L308.82,162.87 L308.82,178.91 L306.65,178.91 L306.65,162.87 L306.65,162.87 Z M307.74,159.36 C307.29,159.36 306.92,159.21 306.61,158.9 C306.3,158.59 306.15,158.23 306.15,157.8 C306.15,157.39 306.3,157.04 306.61,156.73 C306.92,156.42 307.29,156.27 307.74,156.27 C308.19,156.27 308.56,156.42 308.87,156.71 C309.17,157 309.33,157.36 309.33,157.76 C309.33,158.21 309.18,158.58 308.87,158.89 C308.57,159.21 308.19,159.36 307.74,159.36 L307.74,159.36 Z M321.41,179.06 C319.86,179.06 318.47,178.71 317.23,178.01 C315.99,177.31 315.01,176.34 314.3,175.1 C313.59,173.86 313.23,172.46 313.23,170.89 C313.23,169.32 313.59,167.92 314.3,166.68 C315.01,165.44 315.99,164.47 317.23,163.78 C318.47,163.09 319.86,162.74 321.41,162.74 C322.96,162.74 324.35,163.09 325.59,163.78 C326.83,164.47 327.8,165.44 328.5,166.68 C329.2,167.92 329.55,169.32 329.55,170.89 C329.55,172.46 329.2,173.86 328.5,175.1 C327.8,176.34 326.83,177.31 325.59,178.01 C324.35,178.71 322.95,179.06 321.41,179.06 L321.41,179.06 Z M321.41,177.14 C322.55,177.14 323.57,176.88 324.48,176.36 C325.38,175.84 326.09,175.1 326.6,174.15 C327.11,173.19 327.36,172.11 327.36,170.89 C327.36,169.67 327.11,168.58 326.6,167.63 C326.09,166.67 325.39,165.94 324.48,165.42 C323.58,164.9 322.55,164.64 321.41,164.64 C320.27,164.64 319.25,164.9 318.34,165.42 C317.44,165.94 316.72,166.68 316.21,167.63 C315.69,168.59 315.43,169.67 315.43,170.89 C315.43,172.11 315.69,173.2 316.21,174.15 C316.73,175.11 317.44,175.84 318.34,176.36 C319.25,176.88 320.27,177.14 321.41,177.14 L321.41,177.14 Z M342.15,162.75 C344.16,162.75 345.76,163.33 346.95,164.5 C348.14,165.67 348.73,167.37 348.73,169.61 L348.73,178.91 L346.56,178.91 L346.56,169.82 C346.56,168.15 346.14,166.88 345.31,166.01 C344.48,165.14 343.29,164.7 341.74,164.7 C340.01,164.7 338.64,165.21 337.64,166.24 C336.63,167.27 336.13,168.68 336.13,170.49 L336.13,178.91 L333.96,178.91 L333.96,162.87 L336.03,162.87 L336.03,165.83 C336.62,164.85 337.44,164.1 338.49,163.56 C339.55,163.02 340.76,162.75 342.15,162.75 L342.15,162.75 Z M368.65,171.56 L355.23,171.56 C355.35,173.23 355.99,174.57 357.15,175.6 C358.31,176.63 359.77,177.14 361.54,177.14 C362.54,177.14 363.45,176.96 364.29,176.61 C365.12,176.25 365.85,175.73 366.46,175.04 L367.68,176.44 C366.97,177.29 366.08,177.94 365.01,178.39 C363.94,178.84 362.77,179.06 361.49,179.06 C359.84,179.06 358.38,178.71 357.11,178.01 C355.84,177.31 354.85,176.34 354.14,175.1 C353.43,173.86 353.07,172.46 353.07,170.89 C353.07,169.32 353.41,167.92 354.09,166.68 C354.77,165.44 355.71,164.47 356.9,163.78 C358.09,163.09 359.43,162.74 360.91,162.74 C362.39,162.74 363.73,163.09 364.91,163.78 C366.09,164.47 367.01,165.43 367.69,166.66 C368.36,167.89 368.7,169.3 368.7,170.88 L368.65,171.56 L368.65,171.56 Z M360.9,164.61 C359.35,164.61 358.06,165.1 357.01,166.09 C355.96,167.08 355.37,168.36 355.23,169.95 L366.61,169.95 C366.47,168.36 365.87,167.08 364.83,166.09 C363.79,165.1 362.47,164.61 360.9,164.61 L360.9,164.61 Z M377.4,179.06 C376.1,179.06 374.85,178.87 373.66,178.5 C372.47,178.12 371.54,177.65 370.87,177.08 L371.85,175.37 C372.52,175.9 373.36,176.33 374.38,176.67 C375.4,177.01 376.45,177.17 377.55,177.17 C379.01,177.17 380.1,176.94 380.8,176.48 C381.5,176.02 381.85,175.38 381.85,174.54 C381.85,173.95 381.66,173.49 381.27,173.15 C380.88,172.81 380.4,172.56 379.81,172.39 C379.22,172.22 378.44,172.05 377.46,171.89 C376.16,171.65 375.11,171.4 374.32,171.14 C373.53,170.89 372.85,170.45 372.29,169.84 C371.73,169.23 371.45,168.39 371.45,167.31 C371.45,165.97 372.01,164.87 373.13,164.02 C374.25,163.17 375.8,162.74 377.8,162.74 C378.84,162.74 379.87,162.88 380.91,163.15 C381.95,163.42 382.8,163.79 383.47,164.23 L382.52,165.97 C381.2,165.05 379.62,164.6 377.79,164.6 C376.41,164.6 375.37,164.84 374.66,165.33 C373.96,165.82 373.61,166.46 373.61,167.25 C373.61,167.86 373.81,168.35 374.2,168.71 C374.6,169.08 375.09,169.35 375.68,169.52 C376.27,169.69 377.08,169.87 378.12,170.05 C379.4,170.29 380.43,170.54 381.2,170.78 C381.97,171.02 382.63,171.44 383.18,172.03 C383.73,172.62 384,173.43 384,174.47 C384,175.87 383.42,176.99 382.25,177.81 C381.1,178.65 379.48,179.06 377.4,179.06 L377.4,179.06 Z M409.98,171.56 L396.56,171.56 C396.68,173.23 397.32,174.57 398.48,175.6 C399.64,176.63 401.1,177.14 402.87,177.14 C403.87,177.14 404.78,176.96 405.61,176.61 C406.44,176.25 407.17,175.73 407.78,175.04 L409,176.44 C408.29,177.29 407.4,177.94 406.33,178.39 C405.26,178.84 404.09,179.06 402.81,179.06 C401.16,179.06 399.7,178.71 398.43,178.01 C397.16,177.31 396.17,176.34 395.46,175.1 C394.75,173.86 394.39,172.46 394.39,170.89 C394.39,169.32 394.73,167.92 395.41,166.68 C396.09,165.44 397.03,164.47 398.22,163.78 C399.41,163.09 400.75,162.74 402.23,162.74 C403.71,162.74 405.05,163.09 406.23,163.78 C407.41,164.47 408.33,165.43 409.01,166.66 C409.68,167.89 410.02,169.3 410.02,170.88 L409.98,171.56 L409.98,171.56 Z M402.23,164.61 C400.68,164.61 399.39,165.1 398.34,166.09 C397.29,167.08 396.7,168.36 396.56,169.95 L407.94,169.95 C407.8,168.36 407.2,167.08 406.16,166.09 C405.12,165.1 403.8,164.61 402.23,164.61 L402.23,164.61 Z M434.44,162.75 C436.45,162.75 438.03,163.33 439.18,164.49 C440.33,165.65 440.9,167.36 440.9,169.61 L440.9,178.91 L438.73,178.91 L438.73,169.82 C438.73,168.15 438.33,166.88 437.53,166.01 C436.73,165.14 435.59,164.7 434.13,164.7 C432.46,164.7 431.15,165.21 430.2,166.24 C429.24,167.27 428.77,168.68 428.77,170.49 L428.77,178.91 L426.6,178.91 L426.6,169.82 C426.6,168.15 426.2,166.88 425.4,166.01 C424.6,165.14 423.45,164.7 421.97,164.7 C420.32,164.7 419.02,165.21 418.05,166.24 C417.08,167.27 416.6,168.68 416.6,170.49 L416.6,178.91 L414.43,178.91 L414.43,162.87 L416.5,162.87 L416.5,165.8 C417.07,164.82 417.86,164.07 418.88,163.54 C419.9,163.01 421.07,162.75 422.39,162.75 C423.73,162.75 424.9,163.03 425.88,163.6 C426.87,164.17 427.6,165.01 428.09,166.13 C428.68,165.07 429.53,164.24 430.64,163.64 C431.75,163.05 433.01,162.75 434.44,162.75 L434.44,162.75 Z M455.05,162.75 C456.55,162.75 457.92,163.09 459.14,163.77 C460.36,164.45 461.32,165.41 462.01,166.65 C462.7,167.89 463.05,169.3 463.05,170.89 C463.05,172.5 462.7,173.92 462.01,175.16 C461.32,176.4 460.37,177.36 459.16,178.04 C457.95,178.72 456.58,179.06 455.06,179.06 C453.76,179.06 452.58,178.79 451.54,178.25 C450.49,177.71 449.63,176.92 448.96,175.89 L448.96,184.83 L446.79,184.83 L446.79,162.87 L448.86,162.87 L448.86,166.04 C449.51,164.98 450.37,164.17 451.44,163.6 C452.51,163.03 453.71,162.75 455.05,162.75 L455.05,162.75 Z M454.9,177.14 C456.02,177.14 457.04,176.88 457.95,176.36 C458.86,175.84 459.58,175.1 460.1,174.15 C460.62,173.19 460.88,172.11 460.88,170.89 C460.88,169.67 460.62,168.59 460.1,167.64 C459.58,166.69 458.86,165.96 457.95,165.43 C457.03,164.9 456.02,164.64 454.9,164.64 C453.76,164.64 452.74,164.9 451.83,165.43 C450.93,165.96 450.21,166.7 449.7,167.64 C449.18,168.59 448.92,169.67 448.92,170.89 C448.92,172.11 449.18,173.2 449.7,174.15 C450.22,175.11 450.93,175.84 451.83,176.36 C452.74,176.88 453.76,177.14 454.9,177.14 L454.9,177.14 Z M469.54,166.01 C470.05,164.93 470.81,164.12 471.81,163.57 C472.82,163.02 474.06,162.75 475.55,162.75 L475.55,164.85 L475.03,164.82 C473.34,164.82 472.02,165.34 471.07,166.38 C470.11,167.42 469.64,168.87 469.64,170.74 L469.64,178.91 L467.47,178.91 L467.47,162.87 L469.54,162.87 L469.54,166.01 L469.54,166.01 Z M493.27,171.56 L479.85,171.56 C479.97,173.23 480.61,174.57 481.77,175.6 C482.93,176.63 484.39,177.14 486.16,177.14 C487.16,177.14 488.07,176.96 488.9,176.61 C489.73,176.25 490.46,175.73 491.07,175.04 L492.29,176.44 C491.58,177.29 490.69,177.94 489.62,178.39 C488.55,178.84 487.38,179.06 486.1,179.06 C484.45,179.06 482.99,178.71 481.72,178.01 C480.45,177.31 479.46,176.34 478.75,175.1 C478.04,173.86 477.68,172.46 477.68,170.89 C477.68,169.32 478.02,167.92 478.7,166.68 C479.38,165.44 480.32,164.47 481.51,163.78 C482.7,163.09 484.04,162.74 485.52,162.74 C487,162.74 488.34,163.09 489.52,163.78 C490.7,164.47 491.62,165.43 492.3,166.66 C492.97,167.89 493.31,169.3 493.31,170.88 L493.27,171.56 L493.27,171.56 Z M485.52,164.61 C483.97,164.61 482.68,165.1 481.63,166.09 C480.58,167.08 479.99,168.36 479.85,169.95 L491.23,169.95 C491.09,168.36 490.49,167.08 489.45,166.09 C488.41,165.1 487.09,164.61 485.52,164.61 L485.52,164.61 Z M502.02,179.06 C500.72,179.06 499.47,178.87 498.28,178.5 C497.09,178.12 496.16,177.65 495.49,177.08 L496.47,175.37 C497.14,175.9 497.98,176.33 499,176.67 C500.02,177.01 501.07,177.17 502.17,177.17 C503.63,177.17 504.72,176.94 505.42,176.48 C506.12,176.02 506.47,175.38 506.47,174.54 C506.47,173.95 506.28,173.49 505.89,173.15 C505.5,172.81 505.02,172.56 504.43,172.39 C503.84,172.22 503.06,172.05 502.08,171.89 C500.78,171.65 499.73,171.4 498.94,171.14 C498.15,170.89 497.47,170.45 496.91,169.84 C496.35,169.23 496.07,168.39 496.07,167.31 C496.07,165.97 496.63,164.87 497.75,164.02 C498.87,163.17 500.42,162.74 502.42,162.74 C503.46,162.74 504.49,162.88 505.53,163.15 C506.57,163.42 507.42,163.79 508.09,164.23 L507.14,165.97 C505.82,165.05 504.24,164.6 502.41,164.6 C501.03,164.6 499.99,164.84 499.28,165.33 C498.58,165.82 498.23,166.46 498.23,167.25 C498.23,167.86 498.43,168.35 498.82,168.71 C499.22,169.08 499.71,169.35 500.3,169.52 C500.89,169.69 501.7,169.87 502.74,170.05 C504.02,170.29 505.05,170.54 505.82,170.78 C506.59,171.02 507.25,171.44 507.8,172.03 C508.35,172.62 508.62,173.43 508.62,174.47 C508.62,175.87 508.04,176.99 506.87,177.81 C505.72,178.65 504.1,179.06 502.02,179.06 L502.02,179.06 Z M518.25,162.75 C520.34,162.75 521.95,163.27 523.07,164.32 C524.19,165.37 524.75,166.92 524.75,168.97 L524.75,178.91 L522.68,178.91 L522.68,176.41 C522.19,177.24 521.48,177.89 520.53,178.36 C519.58,178.83 518.46,179.06 517.16,179.06 C515.37,179.06 513.95,178.63 512.89,177.78 C511.83,176.93 511.3,175.8 511.3,174.39 C511.3,173.03 511.79,171.93 512.78,171.1 C513.77,170.27 515.34,169.85 517.49,169.85 L522.58,169.85 L522.58,168.87 C522.58,167.49 522.19,166.43 521.42,165.71 C520.65,164.99 519.52,164.63 518.03,164.63 C517.01,164.63 516.04,164.8 515.1,165.13 C514.16,165.47 513.36,165.93 512.69,166.52 L511.71,164.9 C512.52,164.21 513.5,163.67 514.64,163.3 C515.79,162.94 516.99,162.75 518.25,162.75 L518.25,162.75 Z M517.48,177.36 C518.7,177.36 519.75,177.08 520.62,176.52 C521.49,175.96 522.15,175.15 522.57,174.1 L522.57,171.48 L517.54,171.48 C514.8,171.48 513.42,172.44 513.42,174.35 C513.42,175.29 513.78,176.02 514.49,176.56 C515.21,177.09 516.2,177.36 517.48,177.36 L517.48,177.36 Z M532.7,166.01 C533.21,164.93 533.97,164.12 534.97,163.57 C535.98,163.02 537.22,162.75 538.71,162.75 L538.71,164.85 L538.19,164.82 C536.5,164.82 535.18,165.34 534.23,166.38 C533.27,167.42 532.8,168.87 532.8,170.74 L532.8,178.91 L530.63,178.91 L530.63,162.87 L532.7,162.87 L532.7,166.01 L532.7,166.01 Z M542.62,162.87 L544.79,162.87 L544.79,178.91 L542.62,178.91 L542.62,162.87 L542.62,162.87 Z M543.71,159.36 C543.26,159.36 542.89,159.21 542.58,158.9 C542.28,158.59 542.12,158.23 542.12,157.8 C542.12,157.39 542.27,157.04 542.58,156.73 C542.89,156.42 543.26,156.27 543.71,156.27 C544.16,156.27 544.53,156.42 544.84,156.71 C545.15,157 545.3,157.36 545.3,157.76 C545.3,158.21 545.15,158.58 544.84,158.89 C544.54,159.21 544.16,159.36 543.71,159.36 L543.71,159.36 Z M556.43,162.75 C558.52,162.75 560.13,163.27 561.25,164.32 C562.37,165.37 562.93,166.92 562.93,168.97 L562.93,178.91 L560.86,178.91 L560.86,176.41 C560.37,177.24 559.66,177.89 558.71,178.36 C557.76,178.83 556.64,179.06 555.34,179.06 C553.55,179.06 552.13,178.63 551.07,177.78 C550.01,176.93 549.48,175.8 549.48,174.39 C549.48,173.03 549.97,171.93 550.96,171.1 C551.95,170.27 553.52,169.85 555.67,169.85 L560.76,169.85 L560.76,168.87 C560.76,167.49 560.37,166.43 559.6,165.71 C558.83,164.99 557.7,164.63 556.21,164.63 C555.19,164.63 554.22,164.8 553.28,165.13 C552.34,165.47 551.54,165.93 550.87,166.52 L549.89,164.9 C550.7,164.21 551.68,163.67 552.82,163.3 C553.97,162.94 555.17,162.75 556.43,162.75 L556.43,162.75 Z M555.67,177.36 C556.89,177.36 557.94,177.08 558.81,176.52 C559.68,175.96 560.34,175.15 560.76,174.1 L560.76,171.48 L555.73,171.48 C552.99,171.48 551.61,172.44 551.61,174.35 C551.61,175.29 551.97,176.02 552.68,176.56 C553.39,177.09 554.39,177.36 555.67,177.36 L555.67,177.36 Z M568.81,156.28 L570.98,156.28 L570.98,178.91 L568.81,178.91 L568.81,156.28 L568.81,156.28 Z M590.99,171.56 L577.57,171.56 C577.69,173.23 578.33,174.57 579.49,175.6 C580.65,176.63 582.11,177.14 583.88,177.14 C584.88,177.14 585.79,176.96 586.63,176.61 C587.46,176.25 588.19,175.73 588.8,175.04 L590.02,176.44 C589.31,177.29 588.42,177.94 587.35,178.39 C586.28,178.84 585.11,179.06 583.83,179.06 C582.18,179.06 580.72,178.71 579.45,178.01 C578.18,177.31 577.19,176.34 576.48,175.1 C575.77,173.86 575.41,172.46 575.41,170.89 C575.41,169.32 575.75,167.92 576.43,166.68 C577.11,165.44 578.05,164.47 579.24,163.78 C580.43,163.09 581.77,162.74 583.25,162.74 C584.73,162.74 586.07,163.09 587.25,163.78 C588.43,164.47 589.35,165.43 590.03,166.66 C590.7,167.89 591.04,169.3 591.04,170.88 L590.99,171.56 L590.99,171.56 Z M583.24,164.61 C581.69,164.61 580.4,165.1 579.35,166.09 C578.3,167.08 577.71,168.36 577.57,169.95 L588.95,169.95 C588.81,168.36 588.21,167.08 587.17,166.09 C586.13,165.1 584.81,164.61 583.24,164.61 L583.24,164.61 Z M599.74,179.06 C598.44,179.06 597.19,178.87 596,178.5 C594.81,178.12 593.88,177.65 593.21,177.08 L594.19,175.37 C594.86,175.9 595.7,176.33 596.72,176.67 C597.74,177.01 598.79,177.17 599.89,177.17 C601.35,177.17 602.44,176.94 603.14,176.48 C603.84,176.02 604.19,175.38 604.19,174.54 C604.19,173.95 604,173.49 603.61,173.15 C603.22,172.81 602.74,172.56 602.15,172.39 C601.56,172.22 600.78,172.05 599.8,171.89 C598.5,171.65 597.45,171.4 596.66,171.14 C595.87,170.89 595.19,170.45 594.63,169.84 C594.07,169.23 593.79,168.39 593.79,167.31 C593.79,165.97 594.35,164.87 595.47,164.02 C596.59,163.17 598.14,162.74 600.14,162.74 C601.18,162.74 602.21,162.88 603.25,163.15 C604.29,163.42 605.14,163.79 605.81,164.23 L604.86,165.97 C603.54,165.05 601.96,164.6 600.13,164.6 C598.75,164.6 597.71,164.84 597,165.33 C596.3,165.82 595.95,166.46 595.95,167.25 C595.95,167.86 596.15,168.35 596.54,168.71 C596.94,169.08 597.43,169.35 598.02,169.52 C598.61,169.69 599.42,169.87 600.46,170.05 C601.74,170.29 602.77,170.54 603.54,170.78 C604.31,171.02 604.97,171.44 605.52,172.03 C606.07,172.62 606.34,173.43 606.34,174.47 C606.34,175.87 605.76,176.99 604.59,177.81 C603.44,178.65 601.81,179.06 599.74,179.06 L599.74,179.06 Z" id="Shape" fill="#000000" fill-rule="nonzero"></path>
        </g>
    </g>
</svg>