<?xml version="1.0" encoding="UTF-8"?>
<svg width="192px" height="192px" viewBox="0 0 192 192" version="1.1" xmlns="http://www.w3.org/2000/svg" xmlns:xlink="http://www.w3.org/1999/xlink">
    <title>Shape</title>
    <g id="Page-1" stroke="none" stroke-width="1" fill="none" fill-rule="evenodd">
        <g id="Logo_EPS_color" fill="#245880" fill-rule="nonzero">
            <path d="M128.08,0.25 L36.22,23.88 C35.15,24.27 34.37,24.98 33.88,26.02 L0.25,110.85 C-0.19,112.21 -0.05,113.4 0.63,114.33 L58.93,189.86 C59.82,190.97 60.96,191.32 62.48,191.1 L154.33,174.9 C156.27,174.44 157.77,173.3 158.61,171.14 L190.51,89 C191.21,87.08 191.33,85.4 190.09,83.81 L131.48,1.17 C130.69,0.21 129.69,-0.1 128.08,0.25 L128.08,0.25 Z M94.16,15.64 L61.33,32.99 L49.3,28.46 L94.16,15.64 L94.16,15.64 Z M71.04,35.14 L127.23,7.54 L155.23,63.54 L71.04,35.14 L71.04,35.14 Z M66.9,41.45 L155.43,71.62 L89.77,123.48 L66.9,41.45 L66.9,41.45 Z M93.08,128.82 L158.15,78.15 L151.25,165.69 L93.08,128.82 L93.08,128.82 Z M59.95,44.23 L82.23,124.87 L8.69,109.69 L59.95,44.23 L59.95,44.23 Z M56.16,37.79 L15.05,90.94 L39.17,32 L56.16,37.79 L56.16,37.79 Z M11.84,116.79 L81.84,131.58 L61.33,180.28 L11.84,116.79 L11.84,116.79 Z M68.43,183.04 L88.94,133.94 L144.54,169.23 L68.43,183.04 L68.43,183.04 Z M160.12,147.55 L166.23,77.16 L183.38,88.79 L160.12,147.55 L160.12,147.55 Z M164.65,66.51 L155.11,45.93 L174.31,73.8 L164.65,66.51 L164.65,66.51 Z" id="Shape"></path>
        </g>
    </g>
</svg>