<?xml version="1.0" encoding="UTF-8"?>
<svg width="512px" height="352px" viewBox="0 0 512 352" version="1.1" xmlns="http://www.w3.org/2000/svg" xmlns:xlink="http://www.w3.org/1999/xlink">
    <title>message</title>
    <g id="Page-1" stroke="none" stroke-width="1" fill="none" fill-rule="evenodd">
        <g id="message" fill="#FFFFFF" fill-rule="nonzero">
            <path d="M467,0.609 L45,0.609 C20.187,0.609 0,20.796 0,45.609 L0,306.391 C0,331.204 20.187,351.391 45,351.391 L467,351.391 C491.813,351.391 512,331.204 512,306.391 L512,45.609 C512,20.796 491.813,0.609 467,0.609 Z M461.127,30.609 L455.121,35.61 L273.854,186.551 C263.508,195.165 248.49,195.165 238.146,186.551 L56.879,35.61 L50.873,30.609 L461.127,30.609 Z M30,52.267 L177.692,175.25 L30,273.543 L30,52.267 Z M467,321.391 L45,321.391 C37.752,321.391 31.69,316.223 30.301,309.38 L201.746,195.279 L218.95,209.605 C229.684,218.543 242.843,223.012 256.001,223.012 C269.159,223.012 282.317,218.543 293.052,209.605 L310.256,195.279 L481.7,309.379 C480.31,316.224 474.248,321.391 467,321.391 Z M482,273.543 L334.308,175.251 L482,52.267 L482,273.543 Z" id="Shape"></path>
        </g>
    </g>
</svg>