<?xml version="1.0" encoding="UTF-8"?>
<svg width="492px" height="410px" viewBox="0 0 492 410" version="1.1" xmlns="http://www.w3.org/2000/svg" xmlns:xlink="http://www.w3.org/1999/xlink">
    <title>right-arrow</title>
    <g id="Page-1" stroke="none" stroke-width="1" fill="none" fill-rule="evenodd">
        <g id="right-arrow" fill="#FFFFFF" fill-rule="nonzero">
            <path d="M484.14,185.886 L306.46,8.202 C301.388,3.13 294.628,0.346 287.42,0.346 C280.204,0.346 273.448,3.134 268.376,8.202 L252.244,24.338 C247.176,29.402 244.384,36.166 244.384,43.378 C244.384,50.586 247.176,57.578 252.244,62.642 L355.9,166.526 L26.58,166.526 C11.732,166.526 0,178.15 0,193.002 L0,215.814 C0,230.666 11.732,243.462 26.58,243.462 L357.076,243.462 L252.248,347.926 C247.18,352.998 244.388,359.578 244.388,366.79 C244.388,373.994 247.18,380.67 252.248,385.738 L268.38,401.822 C273.452,406.894 280.208,409.658 287.424,409.658 C294.632,409.658 301.392,406.858 306.464,401.786 L484.144,224.106 C489.228,219.018 492.024,212.226 492.004107,205.006 C492.02,197.762 489.228,190.966 484.14,185.886 Z" id="Path"></path>
        </g>
    </g>
</svg>