<svg id="Capa_1" enable-background="new 0 0 512 512" height="512" viewBox="0 0 512 512" width="512" xmlns="http://www.w3.org/2000/svg"><g><path d="m502 406.009c5.523 0 10-4.477 10-10v-13.65c0-68.38-26.628-132.667-74.98-181.019-39.432-39.432-89.461-64.415-143.666-72.292v-20.602h9.334c5.523 0 10-4.477 10-10s-4.477-10-10-10h-93.376c-5.523 0-10 4.477-10 10s4.477 10 10 10h9.334v20.602c-54.204 7.876-104.234 32.86-143.666 72.292-48.352 48.351-74.98 112.639-74.98 181.018v13.65c0 5.523 4.477 10 10 10h26.815v26.085h-26.815c-5.523 0-10 4.477-10 10v48.168c0 5.523 4.477 10 10 10h492c5.523 0 10-4.477 10-10v-48.168c0-5.523-4.477-10-10-10h-26.815v-26.085h26.815zm-263.354-297.564h34.708v18.489c-5.75-.382-11.538-.575-17.354-.575-5.817 0-11.603.193-17.354.575zm-218.646 273.913c0-130.13 105.869-236 236-236 130.13 0 236 105.869 236 236v3.65h-472zm472 97.904h-472v-28.168h472zm-36.815-48.168h-398.37v-26.085h398.37z"/><path d="m83.949 339.841h344.102c3.176 0 6.163-1.509 8.048-4.064 1.885-2.556 2.444-5.856 1.505-8.89-11.771-38.064-35.859-72.271-67.827-96.318-33.083-24.888-72.427-38.043-113.777-38.043s-80.694 13.155-113.777 38.042c-31.968 24.047-56.056 58.254-67.827 96.318-.938 3.034-.379 6.334 1.505 8.89 1.885 2.556 4.872 4.065 8.048 4.065zm172.051-127.315c70.355 0 132.21 42.589 157.93 107.314h-315.86c25.72-64.725 87.575-107.314 157.93-107.314z"/><path d="m256 41.532c5.523 0 10-4.477 10-10v-9.794c0-5.523-4.477-10-10-10s-10 4.477-10 10v9.794c0 5.523 4.477 10 10 10z"/><path d="m399.87 145.075h9.754c5.523 0 10-4.477 10-10s-4.477-10-10-10h-9.754c-5.523 0-10 4.477-10 10s4.477 10 10 10z"/><path d="m102.376 145.075h9.754c5.523 0 10-4.477 10-10s-4.477-10-10-10h-9.754c-5.523 0-10 4.477-10 10s4.477 10 10 10z"/><path d="m348.126 73.029c2.566 0 5.132-.982 7.086-2.944l6.897-6.926c3.897-3.913 3.884-10.245-.03-14.142-3.913-3.897-10.244-3.883-14.142.03l-6.897 6.926c-3.897 3.913-3.884 10.245.03 14.142 1.951 1.944 4.504 2.914 7.056 2.914z"/><path d="m156.788 70.085c1.954 1.962 4.52 2.944 7.086 2.944 2.552 0 5.105-.971 7.056-2.914 3.914-3.897 3.927-10.229.03-14.142l-6.897-6.926c-3.897-3.914-10.229-3.926-14.142-.03-3.914 3.897-3.927 10.229-.03 14.142z"/></g></svg>